<svg width="360" height="343" viewBox="0 0 360 343" fill="none" xmlns="http://www.w3.org/2000/svg">
<g clip-path="url(#clip0_1683_10071)">
<path d="M155.988 75.3507L174.624 56.7207L224.833 106.93V146.8" stroke="#F18435" stroke-width="1.58824" stroke-linecap="round" stroke-linejoin="round"/>
<path d="M18.0273 341.893H66.6962L56.8597 311.489C54.6573 304.676 59.7344 297.688 66.8973 297.688H76.342C87.0679 297.688 96.645 304.39 100.319 314.465L110.325 341.893H140.396" stroke="#F18435" stroke-width="1.58824" stroke-linecap="round" stroke-linejoin="round"/>
<path d="M47.2906 323.995L39.7094 300.564C38.01 295.312 41.9276 289.928 47.4441 289.928H54.7235C60.9229 289.928 66.6247 292.834 70.2829 297.562" stroke="#F18435" stroke-width="1.58824" stroke-linecap="round" stroke-linejoin="round"/>
<path d="M81.993 237.648L72.9136 241.73C72.9136 241.73 70.3883 242.233 69.626 239.962C68.8689 237.685 70.6371 236.674 70.6371 236.674L85.2966 229.85L111.719 217.891" stroke="#F18435" stroke-width="1.58824" stroke-linecap="round" stroke-linejoin="round"/>
<path d="M117.027 232.682C117.027 232.682 118.669 234.958 121.199 234.196" stroke="#F18435" stroke-width="1.58824" stroke-linecap="round" stroke-linejoin="round"/>
<path d="M108.941 241.777C108.941 241.777 113.235 249.713 125.687 247.199" stroke="#F18435" stroke-width="1.58824" stroke-linecap="round" stroke-linejoin="round"/>
<path d="M97.9422 233.514C97.9422 233.514 85.8081 227.748 82.5205 235.081C79.2328 242.413 92.124 244.737 92.124 244.737L81.9805 269.334" stroke="#F18435" stroke-width="1.58824" stroke-linecap="round" stroke-linejoin="round"/>
<path d="M89.1619 251.936C89.1619 251.936 81.9884 251.258 78.7695 239.098" stroke="#F18435" stroke-width="1.58824" stroke-linecap="round" stroke-linejoin="round"/>
<path d="M120.688 220.246L94.207 232.158" stroke="#F18435" stroke-width="1.58824" stroke-linecap="round" stroke-linejoin="round"/>
<path d="M86.1392 203.363C86.1392 203.363 72.6869 181.038 39.6992 184.426C39.6992 184.426 60.1557 207.911 86.1392 203.363Z" stroke="#F18435" stroke-width="1.58824" stroke-linecap="round" stroke-linejoin="round"/>
<path d="M138.847 148.287L131.637 164.598L144.639 168.204L147.106 177.198C148.71 183.048 153.533 187.464 159.51 188.538L167.663 190.005L176.303 212.076" stroke="#F18435" stroke-width="1.58824" stroke-linecap="round" stroke-linejoin="round"/>
<path d="M158.738 143.127L166.69 152.333C166.69 152.333 176.278 143.508 180.979 151.814C185.68 160.121 175.214 166.707 175.214 166.707L192.859 187.735L226.54 173.827C208.376 140.363 190.482 120.558 170.184 120.531C168.914 120.531 167.701 120.611 166.531 120.759" stroke="#F18435" stroke-width="1.58824" stroke-linecap="round" stroke-linejoin="round"/>
<path d="M160.756 163.703C160.756 163.703 160.37 172.237 146.324 174.328" stroke="#F18435" stroke-width="1.58824" stroke-linecap="round" stroke-linejoin="round"/>
<path d="M155.571 158.69C156.01 159.807 157.99 160.077 159.992 159.293C161.998 158.51 163.269 156.964 162.829 155.847C162.39 154.73 160.41 154.46 158.409 155.243C156.407 156.027 155.132 157.573 155.571 158.69Z" fill="#F18435"/>
<path d="M218.227 177.262L202.371 153.211" stroke="#F18435" stroke-width="1.58824" stroke-linecap="round" stroke-linejoin="round"/>
<path d="M191.898 157.309L207.685 181.609" stroke="#F18435" stroke-width="1.58824" stroke-linecap="round" stroke-linejoin="round"/>
<path d="M152.527 153.99C152.527 153.99 151.093 156.621 147.387 155.663" stroke="#F18435" stroke-width="1.58824" stroke-linecap="round" stroke-linejoin="round"/>
<path d="M84.5508 153.213L96.0126 132.92C91.629 122.808 91.1261 108.149 96.9761 97.7937C104.573 84.3466 118.063 78.9414 129.424 80.0637C150.95 82.1972 156.768 100.907 156.768 100.907L167.965 124.127L154.963 127.732L152.495 136.727C150.891 142.582 146.068 146.992 140.091 148.067L131.938 149.533L123.298 171.604C123.298 171.604 149.87 180.154 160.749 205.656C164.206 213.756 169.241 219.363 175.144 222.92" stroke="#F18435" stroke-width="1.58824" stroke-linecap="round" stroke-linejoin="round"/>
<path d="M140.865 102.652L132.913 111.859C132.913 111.859 123.326 103.034 118.625 111.34C113.923 119.646 124.39 126.232 124.39 126.232L114.469 138.054" stroke="#F18435" stroke-width="1.58824" stroke-linecap="round" stroke-linejoin="round"/>
<path d="M138.848 123.232C138.848 123.232 139.234 131.767 153.279 133.858" stroke="#F18435" stroke-width="1.58824" stroke-linecap="round" stroke-linejoin="round"/>
<path d="M144.029 118.219C143.589 119.336 141.609 119.606 139.608 118.823C137.602 118.039 136.331 116.493 136.77 115.376C137.21 114.259 139.19 113.989 141.191 114.773C143.198 115.556 144.468 117.102 144.029 118.219Z" fill="#F18435"/>
<path d="M147.074 113.518C147.074 113.518 148.509 116.149 152.215 115.191" stroke="#F18435" stroke-width="1.58824" stroke-linecap="round" stroke-linejoin="round"/>
<path d="M142.855 91.4609C142.855 91.4609 148.414 106.427 169.315 102.653" stroke="#F18435" stroke-width="1.58824" stroke-linecap="round" stroke-linejoin="round"/>
<path d="M238.006 186.756C237.709 185.528 237.217 184.305 236.434 183.246" stroke="#F18435" stroke-width="1.58824" stroke-linecap="round" stroke-linejoin="round"/>
<path d="M202.59 225.969C209.599 225.144 227.896 221.411 235.265 204.793" stroke="#F18435" stroke-width="1.58824" stroke-linecap="round" stroke-linejoin="round"/>
<path d="M227.898 187.418C227.898 187.418 230.186 177.788 236.65 177.846C243.114 177.899 244.305 183.76 244.305 183.76" stroke="#F18435" stroke-width="1.58824" stroke-linecap="round" stroke-linejoin="round"/>
<path d="M252.513 183.531C252.513 183.531 251.338 177.374 246.626 176.839C241.915 176.31 240.914 178.983 240.914 178.983" stroke="#F18435" stroke-width="1.58824" stroke-linecap="round" stroke-linejoin="round"/>
<path d="M239.68 269.328C264.319 256.003 269.459 207.387 269.459 207.387C274.166 201.96 272.17 190.139 272.17 190.139C270.724 182.34 268.67 177.666 262.794 177.126C262.794 177.126 259.882 176.803 259.04 178.349" stroke="#F18435" stroke-width="1.58824" stroke-linecap="round" stroke-linejoin="round"/>
<path d="M249.625 177.845C249.625 177.845 251.806 175.458 255.231 176.236C255.231 176.236 260.372 177.2 261.929 183.531" stroke="#F18435" stroke-width="1.58824" stroke-linecap="round" stroke-linejoin="round"/>
<path d="M212.531 179.613L218.228 187.734H229.912" stroke="#F18435" stroke-width="1.58824" stroke-linecap="round" stroke-linejoin="round"/>
<path d="M171.167 198.963L160.754 205.66" stroke="#F18435" stroke-width="1.58824" stroke-linecap="round" stroke-linejoin="round"/>
<path d="M200.105 279.238C191.549 277.009 187.43 269.841 182.962 273.377C178.494 276.914 187.515 284.585 187.515 284.585C187.515 284.585 179.765 282.224 175.889 280.709C172.014 279.195 165.518 273.255 163.416 277.004C161.315 280.752 169.145 285.432 169.145 285.432C165.608 284.082 158.022 277.004 155.216 281.387C152.41 285.771 164.089 291.668 164.089 291.668C159.875 289.815 152.796 284.675 150.44 288.465C147.333 293.458 158.869 298.408 158.869 298.408C153.982 295.882 149.011 293.521 148.254 297.397C147.365 301.939 158.175 309.954 177.324 312.31C193.757 314.332 219.031 309.785 234.707 291.838C250.34 273.938 248.657 255.525 248.657 255.525" stroke="#F18435" stroke-width="1.58824" stroke-linecap="round" stroke-linejoin="round"/>
<path d="M76.7148 233.328C73.6654 219.044 88.7219 209.674 101.401 207.233C122.583 203.151 126.003 222.819 129.037 228.002L134.934 239.082L126.506 241.608C126.506 241.608 126.167 258.798 113.027 259.978L111.72 268.121" stroke="#F18435" stroke-width="1.58824" stroke-linecap="round" stroke-linejoin="round"/>
<path d="M115.047 223.915C115.047 223.915 125.132 231.835 131.633 222.734" stroke="#F18435" stroke-width="1.58824" stroke-linecap="round" stroke-linejoin="round"/>
<path d="M121.203 222.74C121.203 222.74 124.491 224.497 128.535 220.246" stroke="#F18435" stroke-width="1.58824" stroke-linecap="round" stroke-linejoin="round"/>
<path d="M174.75 230.331C175.92 225.899 175.004 222.141 175.004 222.141" stroke="#F18435" stroke-width="1.58824" stroke-linecap="round" stroke-linejoin="round"/>
<path d="M110.332 267.136C110.332 267.136 138.301 288.969 159.033 262.678C164.877 255.267 168.832 247.315 171.458 240.496" stroke="#F18435" stroke-width="1.58824" stroke-linecap="round" stroke-linejoin="round"/>
<path d="M171.68 219.283C171.68 219.283 174.486 214.719 178.329 215.498C182.173 216.27 182.485 219.283 182.485 219.283C182.485 219.283 183.03 221.644 182.877 224.529" stroke="#F18435" stroke-width="1.58824" stroke-linecap="round" stroke-linejoin="round"/>
<path d="M181.137 216.841C182.905 215.777 187.071 216.084 188.792 218.604C190.82 221.563 190.581 224.92 190.581 224.92" stroke="#F18435" stroke-width="1.58824" stroke-linecap="round" stroke-linejoin="round"/>
<path d="M196.816 225.619C196.816 225.619 196.959 221.103 194.709 218.689C192.454 216.275 188.949 217.895 188.949 217.895" stroke="#F18435" stroke-width="1.58824" stroke-linecap="round" stroke-linejoin="round"/>
<path d="M194.706 218.683C194.706 218.683 197.358 217.672 199.794 219.964C201.054 221.155 202.06 223.305 202.589 225.962C203.081 228.435 203.161 231.347 202.663 234.343C201.652 240.41 198.454 244.46 198.454 244.46C198.454 244.46 196.088 267.071 191.387 275.007" stroke="#F18435" stroke-width="1.58824" stroke-linecap="round" stroke-linejoin="round"/>
<path d="M172.59 242.133C172.511 241.9 171.42 240.497 167.529 234.964C163.632 229.432 165.141 226.489 167.635 226.711C170.128 226.933 175.528 231.327 175.528 231.327" stroke="#F18435" stroke-width="1.58824" stroke-linecap="round" stroke-linejoin="round"/>
<path d="M311.486 132.586H279.202C275.592 132.586 272.664 135.514 272.664 139.124V173.991C272.664 177.602 275.592 180.529 279.202 180.529H282.839V194.818L292.009 180.529H311.491C315.102 180.529 318.029 177.602 318.029 173.991V139.124C318.029 135.514 315.102 132.586 311.491 132.586H311.486Z" stroke="#F18435" stroke-width="1.58824" stroke-linecap="round" stroke-linejoin="round"/>
<path d="M282.73 143.498H307.957" stroke="#F18435" stroke-width="1.58824" stroke-linecap="round" stroke-linejoin="round"/>
<path d="M282.73 152.143H307.957" stroke="#F18435" stroke-width="1.58824" stroke-linecap="round" stroke-linejoin="round"/>
<path d="M282.73 160.793H307.957" stroke="#F18435" stroke-width="1.58824" stroke-linecap="round" stroke-linejoin="round"/>
<path d="M282.73 169.439H307.957" stroke="#F18435" stroke-width="1.58824" stroke-linecap="round" stroke-linejoin="round"/>
<path d="M235.685 205.989C235.685 205.989 233.504 198.122 231.789 195.941C230.074 193.759 227.146 188.698 231.789 185.972C236.432 183.245 240.911 189.709 240.911 189.709" stroke="#F18435" stroke-width="1.58824" stroke-linecap="round" stroke-linejoin="round"/>
<path d="M38.0268 142.883H15.1562V145.747L18.4757 173.017H34.7074L38.0268 145.747V142.883Z" stroke="#F18435" stroke-width="1.58824" stroke-linecap="round" stroke-linejoin="round"/>
<path d="M170.903 311.252C165.731 314.73 159.659 317.451 152.527 319.13L164.815 340.666H346.027" stroke="#F18435" stroke-width="1.58824" stroke-linecap="round" stroke-linejoin="round"/>
<path d="M262.055 340.667V314.132C262.055 307.314 267.582 301.781 274.406 301.781H282.289" stroke="#F18435" stroke-width="1.58824" stroke-linecap="round" stroke-linejoin="round"/>
<path d="M280.098 296.593C280.098 296.593 283.147 294.402 283.391 284.65C283.634 274.898 288.875 275.263 288.875 275.263" stroke="#F18435" stroke-width="1.58824" stroke-linecap="round" stroke-linejoin="round"/>
<path d="M287.043 296.106C287.043 296.106 289.605 287.693 290.214 280.869C290.823 274.045 291.067 270.508 294.725 270.387" stroke="#F18435" stroke-width="1.58824" stroke-linecap="round" stroke-linejoin="round"/>
<path d="M292.406 297.689C292.406 297.689 297.039 283.67 297.282 275.872C297.526 268.069 299.23 266.973 302.402 266.973" stroke="#F18435" stroke-width="1.58824" stroke-linecap="round" stroke-linejoin="round"/>
<path d="M298.012 299.638C298.012 299.638 302.401 287.207 303.131 278.429C303.862 269.652 304.82 266.385 308.129 266.968C311.157 267.502 311.755 275.253 311.602 280.918C311.443 286.932 309.203 296.588 309.203 296.588" stroke="#F18435" stroke-width="1.58824" stroke-linecap="round" stroke-linejoin="round"/>
<path d="M273.633 317.801C273.633 317.801 276.682 308.171 288.869 311.22C301.056 314.27 304.397 303.909 304.397 303.909C304.397 303.909 306.298 294.644 313.37 296.106C320.438 297.567 316.663 305.492 315.319 309.028C313.979 312.565 310.443 326.34 292.4 327.314V340.359" stroke="#F18435" stroke-width="1.58824" stroke-linecap="round" stroke-linejoin="round"/>
<path d="M26.6055 139.294V130.082" stroke="#F18435" stroke-width="1.58824" stroke-linecap="round" stroke-linejoin="round"/>
<path d="M341.116 214.167C342.841 212.443 342.841 209.647 341.116 207.923C339.392 206.199 336.596 206.199 334.872 207.923C333.148 209.647 333.148 212.443 334.872 214.167C336.596 215.891 339.392 215.891 341.116 214.167Z" stroke="#F18435" stroke-width="1.58824" stroke-linecap="round" stroke-linejoin="round"/>
<path d="M329.43 231.447C329.43 224.459 333.263 218.789 337.996 218.789C342.729 218.789 346.561 224.454 346.561 231.447" stroke="#F18435" stroke-width="1.58824" stroke-linecap="round" stroke-linejoin="round"/>
<path d="M353.698 214.169C355.423 212.445 355.423 209.649 353.698 207.925C351.974 206.201 349.178 206.201 347.454 207.925C345.73 209.649 345.73 212.445 347.454 214.169C349.178 215.893 351.974 215.893 353.698 214.169Z" stroke="#F18435" stroke-width="1.58824" stroke-linecap="round" stroke-linejoin="round"/>
<path d="M342.012 231.449C342.012 224.461 345.845 218.791 350.578 218.791C355.311 218.791 359.144 224.456 359.144 231.449" stroke="#F18435" stroke-width="1.58824" stroke-linecap="round" stroke-linejoin="round"/>
<path d="M329.747 211.737C330.136 209.33 328.5 207.063 326.093 206.673C323.686 206.284 321.419 207.92 321.029 210.327C320.64 212.734 322.276 215.001 324.683 215.391C327.09 215.78 329.357 214.144 329.747 211.737Z" stroke="#F18435" stroke-width="1.58824" stroke-linecap="round" stroke-linejoin="round"/>
<path d="M316.844 231.449C316.844 224.461 320.677 218.791 325.41 218.791C330.143 218.791 333.976 224.456 333.976 231.449" stroke="#F18435" stroke-width="1.58824" stroke-linecap="round" stroke-linejoin="round"/>
<path d="M296.849 123.02L174.624 0.794922L52.3984 123.02" stroke="#F18435" stroke-width="1.58824" stroke-linecap="round" stroke-linejoin="round"/>
<path d="M18.5586 146.801H34.6157" stroke="#F18435" stroke-width="1.58824" stroke-linecap="round" stroke-linejoin="round"/>
<path d="M26.5191 129.956C26.5191 129.956 23.1626 130.374 21.3838 128.563C19.6049 126.753 20.0814 123.407 20.0814 123.407C20.0814 123.407 23.4379 122.989 25.2167 124.799C26.9955 126.61 26.5191 129.956 26.5191 129.956Z" stroke="#F18435" stroke-width="1.58824" stroke-linecap="round" stroke-linejoin="round"/>
<path d="M26.5925 129.896C26.5925 129.896 26.1743 126.54 27.9849 124.761C29.7955 122.982 33.1414 123.458 33.1414 123.458C33.1414 123.458 33.5596 126.815 31.749 128.594C29.9384 130.372 26.5925 129.896 26.5925 129.896Z" stroke="#F18435" stroke-width="1.58824" stroke-linecap="round" stroke-linejoin="round"/>
<path d="M105.625 69.7928V15.4805H121.2" stroke="#F18435" stroke-width="1.58824" stroke-linecap="round" stroke-linejoin="round"/>
<path d="M17.1299 287.502C17.1299 289.451 15.5522 291.028 13.604 291.028C11.6558 291.028 10.0781 289.451 10.0781 287.502C10.0781 285.554 11.6558 283.977 13.604 283.977C15.5522 283.977 17.1299 285.554 17.1299 287.502Z" stroke="#F18435" stroke-width="1.58824" stroke-linecap="round" stroke-linejoin="round"/>
<path d="M6.76953 302.521C6.76953 296.941 9.82953 293.68 13.6042 293.68C17.3789 293.68 20.4389 296.941 20.4389 302.521" stroke="#F18435" stroke-width="1.58824" stroke-linecap="round" stroke-linejoin="round"/>
<path d="M22.7096 280.504H4.49253C2.48076 280.504 0.855469 282.134 0.855469 284.141V302.358C0.855469 304.37 2.48606 306 4.49253 306H15.3455L21.8043 311.279V306H22.7096C24.7214 306 26.3466 304.37 26.3466 302.358V284.141C26.3466 282.129 24.7161 280.504 22.7096 280.504Z" stroke="#F18435" stroke-width="1.58824" stroke-linecap="round" stroke-linejoin="round"/>
</g>
<defs>
<clipPath id="clip0_1683_10071">
<rect width="360" height="343" fill="white"/>
</clipPath>
</defs>
</svg>
