<svg width="280" height="266" viewBox="0 0 280 266" fill="none" xmlns="http://www.w3.org/2000/svg">
<g clip-path="url(#clip0_1713_7706)">
<path d="M121.324 58.6072L135.818 44.1172L174.87 83.169V114.179" stroke="#FFBD8D" stroke-width="1.23529" stroke-linecap="round" stroke-linejoin="round"/>
<path d="M14.0234 265.918H51.877L44.2264 242.27C42.5134 236.97 46.4623 231.535 52.0334 231.535H59.3793C67.7217 231.535 75.1705 236.748 78.0281 244.584L85.8105 265.918H109.199" stroke="#FFBD8D" stroke-width="1.23529" stroke-linecap="round" stroke-linejoin="round"/>
<path d="M36.7824 251.995L30.8859 233.77C29.5642 229.686 32.6112 225.498 36.9018 225.498H42.5636C47.3854 225.498 51.8201 227.759 54.6654 231.436" stroke="#FFBD8D" stroke-width="1.23529" stroke-linecap="round" stroke-linejoin="round"/>
<path d="M63.7732 184.838L56.7115 188.012C56.7115 188.012 54.7473 188.404 54.1544 186.637C53.5656 184.867 54.9409 184.08 54.9409 184.08L66.3426 178.772L86.8938 169.471" stroke="#FFBD8D" stroke-width="1.23529" stroke-linecap="round" stroke-linejoin="round"/>
<path d="M91.0234 180.975C91.0234 180.975 92.2999 182.745 94.2681 182.152" stroke="#FFBD8D" stroke-width="1.23529" stroke-linecap="round" stroke-linejoin="round"/>
<path d="M84.7305 188.049C84.7305 188.049 88.0699 194.221 97.7546 192.265" stroke="#FFBD8D" stroke-width="1.23529" stroke-linecap="round" stroke-linejoin="round"/>
<path d="M76.1803 181.621C76.1803 181.621 66.7427 177.137 64.1856 182.84C61.6286 188.543 71.655 190.35 71.655 190.35L63.7656 209.481" stroke="#FFBD8D" stroke-width="1.23529" stroke-linecap="round" stroke-linejoin="round"/>
<path d="M69.3486 195.95C69.3486 195.95 63.7692 195.423 61.2656 185.965" stroke="#FFBD8D" stroke-width="1.23529" stroke-linecap="round" stroke-linejoin="round"/>
<path d="M93.866 171.303L73.2695 180.567" stroke="#FFBD8D" stroke-width="1.23529" stroke-linecap="round" stroke-linejoin="round"/>
<path d="M66.995 158.171C66.995 158.171 56.5321 140.807 30.875 143.442C30.875 143.442 46.7856 161.708 66.995 158.171Z" stroke="#FFBD8D" stroke-width="1.23529" stroke-linecap="round" stroke-linejoin="round"/>
<path d="M107.991 115.336L102.383 128.022L112.496 130.827L114.415 137.822C115.662 142.372 119.413 145.807 124.062 146.642L130.403 147.783L137.123 164.949" stroke="#FFBD8D" stroke-width="1.23529" stroke-linecap="round" stroke-linejoin="round"/>
<path d="M123.461 111.32L129.646 118.481C129.646 118.481 137.103 111.617 140.759 118.077C144.416 124.538 136.275 129.66 136.275 129.66L149.999 146.016L176.196 135.198C162.068 109.171 148.15 93.7667 132.363 93.7461C131.375 93.7461 130.432 93.8079 129.522 93.9232" stroke="#FFBD8D" stroke-width="1.23529" stroke-linecap="round" stroke-linejoin="round"/>
<path d="M125.029 127.326C125.029 127.326 124.729 133.964 113.805 135.59" stroke="#FFBD8D" stroke-width="1.23529" stroke-linecap="round" stroke-linejoin="round"/>
<path d="M120.997 123.426C121.339 124.295 122.879 124.505 124.435 123.895C125.996 123.286 126.984 122.083 126.642 121.215C126.301 120.346 124.761 120.136 123.204 120.745C121.648 121.355 120.655 122.557 120.997 123.426Z" fill="#FFBD8D"/>
<path d="M169.731 137.871L157.398 119.164" stroke="#FFBD8D" stroke-width="1.23529" stroke-linecap="round" stroke-linejoin="round"/>
<path d="M149.254 122.352L161.533 141.252" stroke="#FFBD8D" stroke-width="1.23529" stroke-linecap="round" stroke-linejoin="round"/>
<path d="M118.631 119.77C118.631 119.77 117.515 121.816 114.633 121.071" stroke="#FFBD8D" stroke-width="1.23529" stroke-linecap="round" stroke-linejoin="round"/>
<path d="M65.7617 119.166L74.6764 103.383C71.267 95.5179 70.8758 84.1161 75.4258 76.062C81.3347 65.6032 91.8264 61.399 100.663 62.272C117.405 63.9314 121.931 78.4832 121.931 78.4832L130.639 96.5432L120.526 99.3473L118.608 106.343C117.36 110.897 113.609 114.327 108.96 115.163L102.619 116.304L95.8988 133.47C95.8988 133.47 116.565 140.12 125.027 159.955C127.716 166.255 131.632 170.616 136.223 173.383" stroke="#FFBD8D" stroke-width="1.23529" stroke-linecap="round" stroke-linejoin="round"/>
<path d="M109.562 79.8418L103.377 87.0024C103.377 87.0024 95.9201 80.1383 92.2636 86.5989C88.6071 93.0594 96.7477 98.1818 96.7477 98.1818L89.0312 107.377" stroke="#FFBD8D" stroke-width="1.23529" stroke-linecap="round" stroke-linejoin="round"/>
<path d="M107.992 95.8477C107.992 95.8477 108.293 102.485 119.217 104.112" stroke="#FFBD8D" stroke-width="1.23529" stroke-linecap="round" stroke-linejoin="round"/>
<path d="M112.025 91.9472C111.684 92.8161 110.144 93.0261 108.587 92.4166C107.027 91.8072 106.038 90.6049 106.38 89.736C106.722 88.8672 108.262 88.6572 109.818 89.2666C111.379 89.876 112.367 91.0784 112.025 91.9472Z" fill="#FFBD8D"/>
<path d="M114.391 88.291C114.391 88.291 115.507 90.3375 118.389 89.5922" stroke="#FFBD8D" stroke-width="1.23529" stroke-linecap="round" stroke-linejoin="round"/>
<path d="M111.109 71.1367C111.109 71.1367 115.433 82.7773 131.689 79.8414" stroke="#FFBD8D" stroke-width="1.23529" stroke-linecap="round" stroke-linejoin="round"/>
<path d="M185.117 145.255C184.887 144.3 184.504 143.349 183.895 142.525" stroke="#FFBD8D" stroke-width="1.23529" stroke-linecap="round" stroke-linejoin="round"/>
<path d="M157.57 175.754C163.022 175.111 177.253 172.208 182.984 159.283" stroke="#FFBD8D" stroke-width="1.23529" stroke-linecap="round" stroke-linejoin="round"/>
<path d="M177.254 145.769C177.254 145.769 179.033 138.279 184.06 138.324C189.088 138.366 190.015 142.924 190.015 142.924" stroke="#FFBD8D" stroke-width="1.23529" stroke-linecap="round" stroke-linejoin="round"/>
<path d="M196.397 142.747C196.397 142.747 195.483 137.958 191.818 137.542C188.153 137.13 187.375 139.21 187.375 139.21" stroke="#FFBD8D" stroke-width="1.23529" stroke-linecap="round" stroke-linejoin="round"/>
<path d="M186.418 209.477C205.581 199.113 209.58 161.3 209.58 161.3C213.24 157.08 211.688 147.885 211.688 147.885C210.564 141.82 208.966 138.184 204.396 137.764C204.396 137.764 202.131 137.513 201.476 138.715" stroke="#FFBD8D" stroke-width="1.23529" stroke-linecap="round" stroke-linejoin="round"/>
<path d="M194.156 138.324C194.156 138.324 195.853 136.467 198.517 137.072C198.517 137.072 202.515 137.822 203.726 142.747" stroke="#FFBD8D" stroke-width="1.23529" stroke-linecap="round" stroke-linejoin="round"/>
<path d="M165.301 139.699L169.731 146.016H178.819" stroke="#FFBD8D" stroke-width="1.23529" stroke-linecap="round" stroke-linejoin="round"/>
<path d="M133.131 154.75L125.031 159.959" stroke="#FFBD8D" stroke-width="1.23529" stroke-linecap="round" stroke-linejoin="round"/>
<path d="M155.637 217.185C148.983 215.452 145.78 209.876 142.304 212.627C138.829 215.377 145.846 221.344 145.846 221.344C145.846 221.344 139.817 219.507 136.803 218.33C133.789 217.152 128.737 212.532 127.102 215.447C125.467 218.363 131.557 222.003 131.557 222.003C128.807 220.953 122.906 215.447 120.724 218.857C118.541 222.266 127.625 226.853 127.625 226.853C124.347 225.412 118.842 221.414 117.01 224.362C114.593 228.245 123.565 232.095 123.565 232.095C119.764 230.131 115.898 228.295 115.309 231.309C114.617 234.842 123.026 241.076 137.919 242.908C150.7 244.481 170.358 240.944 182.55 226.985C194.71 213.063 193.4 198.742 193.4 198.742" stroke="#FFBD8D" stroke-width="1.23529" stroke-linecap="round" stroke-linejoin="round"/>
<path d="M59.6653 181.476C57.2936 170.367 69.0042 163.079 78.8659 161.18C95.3406 158.006 98.0006 173.303 100.36 177.334L104.947 185.952L98.3918 187.916C98.3918 187.916 98.1283 201.286 87.9083 202.204L86.8912 208.537" stroke="#FFBD8D" stroke-width="1.23529" stroke-linecap="round" stroke-linejoin="round"/>
<path d="M89.4844 174.157C89.4844 174.157 97.3285 180.317 102.385 173.238" stroke="#FFBD8D" stroke-width="1.23529" stroke-linecap="round" stroke-linejoin="round"/>
<path d="M94.2656 173.242C94.2656 173.242 96.8227 174.609 99.9686 171.303" stroke="#FFBD8D" stroke-width="1.23529" stroke-linecap="round" stroke-linejoin="round"/>
<path d="M135.918 179.145C136.828 175.699 136.116 172.775 136.116 172.775" stroke="#FFBD8D" stroke-width="1.23529" stroke-linecap="round" stroke-linejoin="round"/>
<path d="M85.8125 207.773C85.8125 207.773 107.566 224.754 123.691 204.306C128.237 198.541 131.313 192.356 133.355 187.053" stroke="#FFBD8D" stroke-width="1.23529" stroke-linecap="round" stroke-linejoin="round"/>
<path d="M133.531 170.553C133.531 170.553 135.714 167.003 138.703 167.609C141.692 168.21 141.935 170.553 141.935 170.553C141.935 170.553 142.359 172.389 142.24 174.633" stroke="#FFBD8D" stroke-width="1.23529" stroke-linecap="round" stroke-linejoin="round"/>
<path d="M140.883 168.654C142.258 167.826 145.499 168.065 146.837 170.025C148.414 172.327 148.229 174.938 148.229 174.938" stroke="#FFBD8D" stroke-width="1.23529" stroke-linecap="round" stroke-linejoin="round"/>
<path d="M153.08 175.482C153.08 175.482 153.191 171.97 151.441 170.092C149.687 168.214 146.961 169.474 146.961 169.474" stroke="#FFBD8D" stroke-width="1.23529" stroke-linecap="round" stroke-linejoin="round"/>
<path d="M151.437 170.087C151.437 170.087 153.5 169.3 155.394 171.083C156.374 172.01 157.157 173.682 157.568 175.749C157.951 177.672 158.013 179.936 157.626 182.267C156.84 186.986 154.353 190.136 154.353 190.136C154.353 190.136 152.512 207.722 148.855 213.894" stroke="#FFBD8D" stroke-width="1.23529" stroke-linecap="round" stroke-linejoin="round"/>
<path d="M134.237 188.324C134.175 188.143 133.327 187.052 130.301 182.749C127.27 178.446 128.444 176.157 130.383 176.329C132.322 176.502 136.522 179.92 136.522 179.92" stroke="#FFBD8D" stroke-width="1.23529" stroke-linecap="round" stroke-linejoin="round"/>
<path d="M242.269 103.121H217.16C214.351 103.121 212.074 105.398 212.074 108.206V135.325C212.074 138.133 214.351 140.411 217.16 140.411H219.988V151.524L227.12 140.411H242.273C245.081 140.411 247.358 138.133 247.358 135.325V108.206C247.358 105.398 245.081 103.121 242.273 103.121H242.269Z" stroke="#FFBD8D" stroke-width="1.23529" stroke-linecap="round" stroke-linejoin="round"/>
<path d="M219.902 111.607H239.523" stroke="#FFBD8D" stroke-width="1.23529" stroke-linecap="round" stroke-linejoin="round"/>
<path d="M219.902 118.332H239.523" stroke="#FFBD8D" stroke-width="1.23529" stroke-linecap="round" stroke-linejoin="round"/>
<path d="M219.902 125.061H239.523" stroke="#FFBD8D" stroke-width="1.23529" stroke-linecap="round" stroke-linejoin="round"/>
<path d="M219.902 131.785H239.523" stroke="#FFBD8D" stroke-width="1.23529" stroke-linecap="round" stroke-linejoin="round"/>
<path d="M183.311 160.214C183.311 160.214 181.614 154.095 180.28 152.398C178.946 150.702 176.669 146.765 180.28 144.645C183.891 142.524 187.375 147.552 187.375 147.552" stroke="#FFBD8D" stroke-width="1.23529" stroke-linecap="round" stroke-linejoin="round"/>
<path d="M29.5734 111.131H11.7852V113.358L14.3669 134.568H26.9916L29.5734 113.358V111.131Z" stroke="#FFBD8D" stroke-width="1.23529" stroke-linecap="round" stroke-linejoin="round"/>
<path d="M132.925 242.084C128.902 244.789 124.179 246.906 118.633 248.211L128.19 264.962H269.133" stroke="#FFBD8D" stroke-width="1.23529" stroke-linecap="round" stroke-linejoin="round"/>
<path d="M203.82 264.963V244.325C203.82 239.022 208.119 234.719 213.427 234.719H219.558" stroke="#FFBD8D" stroke-width="1.23529" stroke-linecap="round" stroke-linejoin="round"/>
<path d="M217.852 230.683C217.852 230.683 220.223 228.978 220.413 221.394C220.602 213.809 224.679 214.093 224.679 214.093" stroke="#FFBD8D" stroke-width="1.23529" stroke-linecap="round" stroke-linejoin="round"/>
<path d="M223.254 230.304C223.254 230.304 225.247 223.761 225.72 218.454C226.194 213.146 226.383 210.395 229.229 210.301" stroke="#FFBD8D" stroke-width="1.23529" stroke-linecap="round" stroke-linejoin="round"/>
<path d="M227.426 231.535C227.426 231.535 231.029 220.632 231.218 214.566C231.408 208.497 232.733 207.645 235.2 207.645" stroke="#FFBD8D" stroke-width="1.23529" stroke-linecap="round" stroke-linejoin="round"/>
<path d="M231.789 233.051C231.789 233.051 235.203 223.382 235.771 216.555C236.339 209.728 237.084 207.188 239.658 207.641C242.013 208.057 242.478 214.085 242.359 218.491C242.236 223.168 240.494 230.679 240.494 230.679" stroke="#FFBD8D" stroke-width="1.23529" stroke-linecap="round" stroke-linejoin="round"/>
<path d="M212.824 247.179C212.824 247.179 215.196 239.689 224.675 242.061C234.154 244.433 236.752 236.375 236.752 236.375C236.752 236.375 238.23 229.169 243.731 230.305C249.228 231.442 246.292 237.606 245.247 240.356C244.205 243.107 241.454 253.821 227.421 254.579V264.725" stroke="#FFBD8D" stroke-width="1.23529" stroke-linecap="round" stroke-linejoin="round"/>
<path d="M20.6914 108.339V101.174" stroke="#FFBD8D" stroke-width="1.23529" stroke-linecap="round" stroke-linejoin="round"/>
<path d="M265.312 166.573C266.653 165.232 266.653 163.057 265.312 161.716C263.971 160.375 261.797 160.375 260.456 161.716C259.115 163.057 259.115 165.232 260.456 166.573C261.797 167.914 263.971 167.914 265.312 166.573Z" stroke="#FFBD8D" stroke-width="1.23529" stroke-linecap="round" stroke-linejoin="round"/>
<path d="M256.223 180.013C256.223 174.578 259.204 170.168 262.885 170.168C266.566 170.168 269.547 174.574 269.547 180.013" stroke="#FFBD8D" stroke-width="1.23529" stroke-linecap="round" stroke-linejoin="round"/>
<path d="M275.097 166.573C276.438 165.232 276.438 163.057 275.097 161.716C273.756 160.375 271.582 160.375 270.241 161.716C268.9 163.057 268.9 165.232 270.241 166.573C271.582 167.914 273.756 167.914 275.097 166.573Z" stroke="#FFBD8D" stroke-width="1.23529" stroke-linecap="round" stroke-linejoin="round"/>
<path d="M266.008 180.013C266.008 174.578 268.989 170.168 272.67 170.168C276.351 170.168 279.333 174.574 279.333 180.013" stroke="#FFBD8D" stroke-width="1.23529" stroke-linecap="round" stroke-linejoin="round"/>
<path d="M256.469 164.683C256.772 162.811 255.5 161.048 253.628 160.745C251.755 160.442 249.992 161.714 249.689 163.587C249.386 165.459 250.658 167.222 252.531 167.525C254.403 167.828 256.166 166.556 256.469 164.683Z" stroke="#FFBD8D" stroke-width="1.23529" stroke-linecap="round" stroke-linejoin="round"/>
<path d="M246.434 180.015C246.434 174.58 249.415 170.17 253.096 170.17C256.777 170.17 259.758 174.576 259.758 180.015" stroke="#FFBD8D" stroke-width="1.23529" stroke-linecap="round" stroke-linejoin="round"/>
<path d="M230.882 95.6813L135.818 0.617188L40.7539 95.6813" stroke="#FFBD8D" stroke-width="1.23529" stroke-linecap="round" stroke-linejoin="round"/>
<path d="M14.4336 114.178H26.9224" stroke="#FFBD8D" stroke-width="1.23529" stroke-linecap="round" stroke-linejoin="round"/>
<path d="M20.6264 101.075C20.6264 101.075 18.0158 101.401 16.6323 99.9923C15.2487 98.5841 15.6193 95.9817 15.6193 95.9817C15.6193 95.9817 18.2299 95.6564 19.6134 97.0646C20.997 98.4729 20.6264 101.075 20.6264 101.075Z" stroke="#FFBD8D" stroke-width="1.23529" stroke-linecap="round" stroke-linejoin="round"/>
<path d="M20.6848 101.029C20.6848 101.029 20.3595 98.4181 21.7678 97.0346C23.176 95.6511 25.7784 96.0217 25.7784 96.0217C25.7784 96.0217 26.1037 98.6322 24.6954 100.016C23.2872 101.399 20.6848 101.029 20.6848 101.029Z" stroke="#FFBD8D" stroke-width="1.23529" stroke-linecap="round" stroke-linejoin="round"/>
<path d="M82.1523 54.282V12.0391H94.2665" stroke="#FFBD8D" stroke-width="1.23529" stroke-linecap="round" stroke-linejoin="round"/>
<path d="M13.3206 223.611C13.3206 225.127 12.0936 226.354 10.5783 226.354C9.063 226.354 7.83594 225.127 7.83594 223.611C7.83594 222.096 9.063 220.869 10.5783 220.869C12.0936 220.869 13.3206 222.096 13.3206 223.611Z" stroke="#FFBD8D" stroke-width="1.23529" stroke-linecap="round" stroke-linejoin="round"/>
<path d="M5.26172 235.292C5.26172 230.952 7.64172 228.416 10.5776 228.416C13.5135 228.416 15.8935 230.952 15.8935 235.292" stroke="#FFBD8D" stroke-width="1.23529" stroke-linecap="round" stroke-linejoin="round"/>
<path d="M17.6617 218.168H3.49289C1.92818 218.168 0.664062 219.436 0.664062 220.997V235.166C0.664062 236.73 1.9323 237.999 3.49289 237.999H11.9341L16.9576 242.104V237.999H17.6617C19.2264 237.999 20.4905 236.73 20.4905 235.166V220.997C20.4905 219.432 19.2223 218.168 17.6617 218.168Z" stroke="#FFBD8D" stroke-width="1.23529" stroke-linecap="round" stroke-linejoin="round"/>
</g>
<defs>
<clipPath id="clip0_1713_7706">
<rect width="280" height="266" fill="white"/>
</clipPath>
</defs>
</svg>
