<svg width="220" height="35" viewBox="0 0 220 35" fill="none" xmlns="http://www.w3.org/2000/svg">
<path d="M29.5483 11.4453V8.78997H18.8967V10.3213H27.0589V12.2902C27.0589 13.2633 26.9307 14.1686 26.7572 14.8475H16.7543V16.3788H22.8496V19.0493H18.7459V20.5806H27.2022V25.0842H28.3262C29.2315 25.0842 29.6841 24.8654 29.6841 24.013V19.0493H25.3314V16.3788H31.6756V14.8475H28.9448C29.322 13.9045 29.5407 12.607 29.5407 11.4453H29.5483ZM13.3446 8.41279H10.8552V20.7164H11.9792C12.8845 20.7164 13.3446 20.4976 13.3446 19.6452V13.7763H15.8265V12.2525H13.3446V8.41279ZM5.37859 19.8187H2.8892V23.2058C2.8892 24.3826 3.59829 25.0615 4.85808 25.0615H13.4955V23.5377H5.37859V19.8187ZM8.87127 14.425C8.87127 13.3161 8.3734 12.3128 7.58132 11.6037H9.3088V10.0724H5.8991V8.2242H3.40971V10.0724H0V11.6037H1.72749C0.935408 12.3204 0.43753 13.3161 0.43753 14.425C0.43753 16.5901 2.32343 18.3477 4.6544 18.3477C6.98537 18.3477 8.87127 16.5901 8.87127 14.425ZM2.91937 14.425C2.91937 13.0747 3.69636 11.9809 4.6544 11.9809C5.61244 11.9809 6.38943 13.0747 6.38943 14.425C6.38943 15.7753 5.61244 16.8692 4.6544 16.8692C3.69636 16.8692 2.91937 15.7753 2.91937 14.425ZM133.786 18.74H138.727C137.595 19.434 136.856 20.5655 136.856 21.8555C136.856 23.9677 138.855 25.6876 141.329 25.6876C143.804 25.6876 145.81 23.9677 145.81 21.8555C145.81 20.5731 145.071 19.4415 143.939 18.74H148.881V17.2086H133.778V18.74H133.786ZM141.329 19.5094C142.378 19.5094 143.238 20.558 143.238 21.8555C143.238 23.153 142.385 24.194 141.329 24.194C140.273 24.194 139.428 23.1454 139.428 21.8555C139.428 20.5655 140.281 19.5094 141.329 19.5094ZM137.18 13.0974C137.18 15.0059 139.036 16.5448 141.329 16.5448C143.623 16.5448 145.486 14.9984 145.486 13.0974C145.486 12.3204 145.177 11.6037 144.656 11.0304H147.394V9.49907H142.582V7.80176H140.092V9.49907H135.279V11.0304H138.018C137.497 11.6037 137.188 12.3204 137.188 13.0974H137.18ZM141.329 11.1813C142.25 11.1813 142.989 12.0413 142.989 13.1049C142.989 14.1686 142.25 15.0285 141.329 15.0285C140.409 15.0285 139.67 14.1686 139.67 13.1049C139.67 12.0413 140.417 11.1813 141.329 11.1813ZM154.357 19.6905H156.839V17.2388H161.018V15.7829H150.759V17.2388H154.35V19.6905H154.357ZM158.627 19.5698H162.323V21.1011H163.447C164.352 21.1011 164.805 20.8824 164.805 20.0299V8.41279H162.316V18.1214H158.619V19.5773L158.627 19.5698ZM156.839 23.5377V20.5203H154.357V23.2133C154.357 24.3901 155.066 25.0691 156.326 25.0691H164.964V23.5453H156.847L156.839 23.5377ZM155.79 15.2096C158.031 15.2096 159.849 13.6481 159.849 11.7244C159.849 9.80081 158.031 8.23929 155.79 8.23929C153.55 8.23929 151.74 9.80081 151.74 11.7244C151.74 13.6481 153.55 15.2096 155.79 15.2096ZM155.79 9.55187C156.658 9.55187 157.367 10.525 157.367 11.7244C157.367 12.9239 156.666 13.897 155.79 13.897C154.915 13.897 154.221 12.9239 154.221 11.7244C154.221 10.525 154.923 9.55187 155.79 9.55187ZM111.796 11.7093H109.329C108.877 9.83099 107.104 8.42788 104.977 8.42788C102.51 8.42788 100.511 10.3138 100.511 12.6523C100.511 14.9908 102.51 16.8767 104.977 16.8767C107.232 16.8767 109.096 15.2926 109.397 13.2332H111.796V17.0578H112.92C113.825 17.0578 114.286 16.839 114.286 15.9866V8.41279H111.796V11.7093ZM104.984 15.285C103.943 15.285 103.098 14.1082 103.098 12.6523C103.098 11.1964 103.943 10.0196 104.984 10.0196C106.025 10.0196 106.87 11.1964 106.87 12.6523C106.87 14.1082 106.025 15.285 104.984 15.285ZM111.796 20.0073H106.244V18.144H103.755V23.2058C103.755 24.3826 104.464 25.0615 105.724 25.0615H114.278V18.144H111.789V20.0073H111.796ZM111.796 23.5377H106.244V21.5387H111.796V23.5377ZM61.586 18.8305C60.5223 19.1473 58.7194 19.2907 57.5803 19.2907H56.5544V17.7442C58.2366 17.2614 59.4587 15.8206 59.4587 14.1233C59.4587 13.1502 59.0589 12.2676 58.4026 11.5962H59.9641V10.0648H56.5544V8.21666H54.065V10.0648H50.6553V11.5962H52.2168C51.5605 12.2676 51.1607 13.1502 51.1607 14.1233C51.1607 15.8206 52.3828 17.2614 54.065 17.7442V19.2907H50.5572V20.822H57.5803C59.0136 20.822 60.6581 20.5655 61.586 20.1733V25.0842H62.71C63.6152 25.0842 64.0678 24.8654 64.0678 24.013V8.41279H61.5784V18.8305H61.586ZM55.3097 16.492C54.3969 16.492 53.6501 15.4359 53.6501 14.1308C53.6501 12.8258 54.3969 11.7697 55.3097 11.7697C56.2225 11.7697 56.9693 12.8258 56.9693 14.1308C56.9693 15.4359 56.23 16.492 55.3097 16.492ZM46.3781 8.41279H43.8962V25.0842H45.0202C45.9255 25.0842 46.3781 24.8654 46.3781 24.013V14.2365H48.8599V12.7051H46.3781V8.41279ZM39.0004 11.732V8.79751H36.4431V11.732C36.4431 13.0219 36.2621 16.2808 32.4601 18.1516L33.6746 19.3208C34.8665 18.8607 36.7373 17.5707 37.718 16.0771C38.6987 17.5707 40.577 18.8607 41.7614 19.3208L42.9684 18.1516C39.1739 16.2732 38.9929 13.0144 38.9929 11.732H39.0004ZM94.9212 25.0842H96.0452C96.9504 25.0842 97.4106 24.8654 97.4106 24.013V8.41279H94.9212V25.0842ZM89.6557 8.97102H84.3224V10.5024H89.6406C89.4445 13.897 86.7665 17.0351 83.7114 18.491L84.9259 19.6603C87.0607 18.7475 92.3639 15.7376 92.3639 9.95923V8.97102H89.6633H89.6557ZM78.2272 12.0413H75.3681V13.5651H78.2272V17.6763H79.3512C80.2564 17.6763 80.7166 17.45 80.7166 16.6051V8.40525H78.2272V12.0337V12.0413ZM69.6275 20.4373H78.2272V25.0842H79.3512C80.2564 25.0842 80.7166 24.8654 80.7166 24.013V18.9059H69.6275V20.4373ZM71.7321 14.5005C72.6826 15.9187 74.4931 16.9974 75.7076 17.4576L76.9221 16.2883C73.2786 14.5457 73.0145 12.1921 73.0145 10.3213H75.9792V8.78997H67.4926V10.3213H70.4573C70.4573 12.1921 70.1932 14.5382 66.5497 16.2883L67.7642 17.4576C68.9712 17.005 70.7892 15.9187 71.7397 14.5005H71.7321ZM131.04 19.6528V8.41279H128.551V20.7164H129.675C130.58 20.7164 131.04 20.4976 131.04 19.6452V19.6528ZM123.074 19.5094H120.592V23.2058C120.592 24.3826 121.301 25.0615 122.561 25.0615H131.198V23.5377H123.081V19.517L123.074 19.5094ZM121.988 15.1266C122.953 16.5825 124.771 17.7895 126.039 18.227L127.253 17.0578C123.557 15.3227 123.278 12.1997 123.27 10.3213H126.303V8.78997H117.673V10.3213H120.705C120.705 12.1997 120.426 15.3152 116.722 17.0578L117.937 18.227C119.204 17.7895 121.022 16.5901 121.988 15.1266Z" fill="#58595B"/>
</svg>
