<svg width="220" height="36" viewBox="0 0 220 36" fill="none" xmlns="http://www.w3.org/2000/svg">
<path d="M79.5848 11.9448V9.28948H68.9332V10.8208H77.0954V12.7897C77.0954 13.7628 76.9672 14.6681 76.7937 15.347H66.7908V16.8783H72.8861V19.5488H68.7824V21.0801H77.2387V25.5837H78.3627C79.268 25.5837 79.7206 25.3649 79.7206 24.5125V19.5488H75.3679V16.8783H81.7121V15.347H78.9813C79.3585 14.404 79.5772 13.1065 79.5772 11.9448H79.5848ZM63.3811 8.9123H60.8917V21.2159H62.0157C62.921 21.2159 63.3811 20.9972 63.3811 20.1447V14.2758H65.863V12.752H63.3811V8.9123ZM55.4151 20.3182H52.9257V23.7053C52.9257 24.8821 53.6348 25.561 54.8946 25.561H63.532V24.0372H55.4151V20.3182ZM58.9078 14.9246C58.9078 13.8156 58.4099 12.8123 57.6178 12.1032H59.3453V10.5719H55.9356V8.72371H53.4462V10.5719H50.0365V12.1032H51.764C50.9719 12.8199 50.474 13.8156 50.474 14.9246C50.474 17.0896 52.3599 18.8472 54.6909 18.8472C57.0219 18.8472 58.9078 17.0896 58.9078 14.9246ZM52.9559 14.9246C52.9559 13.5742 53.7329 12.4804 54.6909 12.4804C55.6489 12.4804 56.4259 13.5742 56.4259 14.9246C56.4259 16.2749 55.6489 17.3687 54.6909 17.3687C53.7329 17.3687 52.9559 16.2749 52.9559 14.9246ZM183.822 19.2395H188.763C187.632 19.9335 186.893 21.065 186.893 22.355C186.893 24.4672 188.892 26.1872 191.366 26.1872C193.84 26.1872 195.847 24.4672 195.847 22.355C195.847 21.0726 195.108 19.9411 193.976 19.2395H198.917V17.7081H183.815V19.2395H183.822ZM191.366 20.0089C192.414 20.0089 193.274 21.0575 193.274 22.355C193.274 23.6525 192.422 24.6935 191.366 24.6935C190.31 24.6935 189.465 23.645 189.465 22.355C189.465 21.065 190.317 20.0089 191.366 20.0089ZM187.217 13.5969C187.217 15.5054 189.073 17.0443 191.366 17.0443C193.659 17.0443 195.522 15.4979 195.522 13.5969C195.522 12.8199 195.213 12.1032 194.693 11.5299H197.431V9.99858H192.618V8.30127H190.129V9.99858H185.316V11.5299H188.054C187.534 12.1032 187.224 12.8199 187.224 13.5969H187.217ZM191.366 11.6808C192.286 11.6808 193.025 12.5408 193.025 13.6044C193.025 14.6681 192.286 15.528 191.366 15.528C190.446 15.528 189.706 14.6681 189.706 13.6044C189.706 12.5408 190.453 11.6808 191.366 11.6808ZM204.394 20.19H206.876V17.7383H211.055V16.2824H200.795V17.7383H204.386V20.19H204.394ZM208.663 20.0693H212.36V21.6006H213.484C214.389 21.6006 214.842 21.3819 214.842 20.5295V8.9123H212.352V18.6209H208.656V20.0768L208.663 20.0693ZM206.876 24.0372V21.0198H204.394V23.7129C204.394 24.8897 205.103 25.5686 206.363 25.5686H215V24.0448H206.883L206.876 24.0372ZM205.827 15.7091C208.067 15.7091 209.885 14.1476 209.885 12.2239C209.885 10.3003 208.067 8.7388 205.827 8.7388C203.587 8.7388 201.776 10.3003 201.776 12.2239C201.776 14.1476 203.587 15.7091 205.827 15.7091ZM205.827 10.0514C206.695 10.0514 207.404 11.0245 207.404 12.2239C207.404 13.4234 206.702 14.3965 205.827 14.3965C204.952 14.3965 204.258 13.4234 204.258 12.2239C204.258 11.0245 204.959 10.0514 205.827 10.0514ZM161.833 12.2089H159.366C158.913 10.3305 157.141 8.92739 155.013 8.92739C152.547 8.92739 150.547 10.8133 150.547 13.1518C150.547 15.4903 152.547 17.3762 155.013 17.3762C157.269 17.3762 159.132 15.7921 159.434 13.7327H161.833V17.5573H162.957C163.862 17.5573 164.322 17.3385 164.322 16.4861V8.9123H161.833V12.2089ZM155.021 15.7845C153.98 15.7845 153.135 14.6077 153.135 13.1518C153.135 11.6959 153.98 10.5191 155.021 10.5191C156.062 10.5191 156.907 11.6959 156.907 13.1518C156.907 14.6077 156.062 15.7845 155.021 15.7845ZM161.833 20.5068H156.281V18.6435H153.791V23.7053C153.791 24.8821 154.5 25.561 155.76 25.561H164.315V18.6435H161.825V20.5068H161.833ZM161.833 24.0372H156.281V22.0382H161.833V24.0372ZM111.622 19.33C110.559 19.6468 108.756 19.7902 107.617 19.7902H106.591V18.2437C108.273 17.7609 109.495 16.3201 109.495 14.6228C109.495 13.6497 109.095 12.7671 108.439 12.0957H110.001V10.5644H106.591V8.71617H104.102V10.5644H100.692V12.0957H102.253C101.597 12.7671 101.197 13.6497 101.197 14.6228C101.197 16.3201 102.419 17.7609 104.102 18.2437V19.7902H100.594V21.3215H107.617C109.05 21.3215 110.695 21.065 111.622 20.6728V25.5837H112.746C113.652 25.5837 114.104 25.3649 114.104 24.5125V8.9123H111.615V19.33H111.622ZM105.346 16.9915C104.433 16.9915 103.687 15.9354 103.687 14.6304C103.687 13.3253 104.433 12.2692 105.346 12.2692C106.259 12.2692 107.006 13.3253 107.006 14.6304C107.006 15.9354 106.267 16.9915 105.346 16.9915ZM96.4146 8.9123H93.9327V25.5837H95.0567C95.962 25.5837 96.4146 25.3649 96.4146 24.5125V14.736H98.8964V13.2046H96.4146V8.9123ZM89.0369 12.2315V9.29703H86.4796V12.2315C86.4796 13.5214 86.2986 16.7803 82.4966 18.6511L83.7111 19.8204C84.903 19.3602 86.7738 18.0702 87.7545 16.5766C88.7352 18.0702 90.6135 19.3602 91.7979 19.8204L93.0049 18.6511C89.2104 16.7727 89.0294 13.5139 89.0294 12.2315H89.0369ZM144.958 25.5837H146.082C146.987 25.5837 147.447 25.3649 147.447 24.5125V8.9123H144.958V25.5837ZM139.692 9.47053H134.359V11.0019H139.677C139.481 14.3965 136.803 17.5346 133.748 18.9906L134.962 20.1598C137.097 19.247 142.4 16.2371 142.4 10.4587V9.47053H139.7H139.692ZM128.264 12.5408H125.405V14.0646H128.264V18.1758H129.388C130.293 18.1758 130.753 17.9495 130.753 17.1047V8.90476H128.264V12.5332V12.5408ZM119.664 20.9368H128.264V25.5837H129.388C130.293 25.5837 130.753 25.3649 130.753 24.5125V19.4055H119.664V20.9368ZM121.769 15C122.719 16.4182 124.53 17.4969 125.744 17.9571L126.959 16.7878C123.315 15.0453 123.051 12.6916 123.051 10.8208H126.016V9.28948H117.529V10.8208H120.494C120.494 12.6916 120.23 15.0377 116.586 16.7878L117.801 17.9571C119.008 17.5045 120.826 16.4182 121.776 15H121.769ZM181.076 20.1523V8.9123H178.587V21.2159H179.711C180.616 21.2159 181.076 20.9972 181.076 20.1447V20.1523ZM173.11 20.0089H170.629V23.7053C170.629 24.8821 171.338 25.561 172.597 25.561H181.235V24.0372H173.118V20.0165L173.11 20.0089ZM172.024 15.6261C172.99 17.082 174.808 18.289 176.075 18.7265L177.29 17.5573C173.593 15.8222 173.314 12.6992 173.307 10.8208H176.339V9.28948H167.709V10.8208H170.742C170.742 12.6992 170.463 15.8147 166.759 17.5573L167.973 18.7265C169.241 18.289 171.059 17.0896 172.024 15.6261Z" fill="#58595B"/>
<path d="M16.6257 21.0573C18.406 22.6943 19.9072 24.4746 19.3565 27.5147C18.8058 30.5925 15.9694 32.1389 14.6493 31.6561C14.1288 31.46 13.7139 30.9093 14.0232 30.1021C14.604 28.616 16.158 27.5826 17.6969 27.1149C18.6021 26.8357 18.7153 26.4133 18.2551 26.0361C17.8553 25.7118 17.0859 25.4326 16.0826 25.41C13.4046 25.3572 10.6135 27.9673 11.4583 30.8867C11.9789 32.682 13.91 33.9267 16.2561 33.9946C19.017 34.0852 22.208 32.3728 22.9548 28.7971C23.7771 24.8065 21.0689 21.344 17.878 20.1974C15.8261 19.4656 15.9543 20.4312 16.6257 21.0649V21.0573Z" fill="#EEEEEE"/>
<path d="M31.8275 24.8144C32.5215 26.6701 32.3555 28.6767 32.8006 29.6951C33.2381 30.6833 34.347 30.9775 35.1165 30.3891C35.9916 29.7102 35.9916 27.3264 35.7954 25.9761C35.6144 24.7691 34.7846 20.9596 32.8911 20.2505C31.6992 19.7979 30.3565 20.4843 30.1528 21.3141C29.9491 22.1439 28.448 25.3877 27.8218 25.1463C27.588 25.0558 27.0147 23.0944 26.7506 22.3778C26.464 21.6159 25.4003 18.0553 24.6309 17.9949C24.0425 17.9497 23.8916 19.8205 24.0199 21.4197C24.1406 22.8078 24.6158 27.4244 26.034 28.2693C27.4446 29.1142 30.4545 27.5074 31.8199 24.8219L31.8275 24.8144Z" fill="#EEEEEE"/>
<path d="M22.7528 6.40782C24.4048 3.4809 25.5439 1.14238 24.3067 1.05186C23.2808 0.976425 17.7212 6.785 17.0196 6.77746C16.3181 6.76991 13.3006 1.54974 12.2671 1.42904C9.92863 1.14993 14.93 16.6973 17.4571 16.984C18.4227 17.0896 17.9475 13.9514 17.9475 13.4686C17.9475 12.8123 17.9852 12.3446 18.6415 12.669C19.5618 13.1216 23.4166 15.1961 23.8918 14.6605C24.518 13.959 21.3647 10.1721 21.3647 9.40263C21.3647 8.73125 21.8702 7.99952 22.7603 6.41536L22.7528 6.40782ZM16.8687 3.15653C17.5401 3.57897 18.4378 3.37529 18.8603 2.70391C19.2827 2.02499 19.0715 1.13484 18.4001 0.719943C17.7287 0.297501 16.8386 0.501178 16.4086 1.1801C15.9861 1.85148 16.1974 2.74163 16.8687 3.16407V3.15653Z" fill="#EEEEEE"/>
<path d="M13.0354 20.7028C12.7412 20.6274 12.4546 20.5444 12.1604 20.4539C12.2207 19.0206 11.9567 15.7617 11.3532 15.4902C10.8478 15.2714 10.1915 17.0592 9.6257 19.5185C7.60402 18.6434 6.08021 17.6627 6.0953 17.2554C6.11793 16.75 7.72471 15.9579 9.40694 15.2488C11.2099 14.4793 13.3824 13.7853 13.0279 13.0687C12.3942 11.7938 6.47248 13.0687 3.86239 14.8339C3.40977 15.1356 3.07031 15.4977 2.844 15.8975C2.76102 15.5505 2.55735 15.2261 2.23297 15.0149C1.56913 14.5774 0.671445 14.766 0.233916 15.4298C-0.203612 16.1012 -0.0074788 16.9913 0.656358 17.4289C1.29002 17.8438 2.12736 17.6854 2.58752 17.0894C2.62524 17.5269 2.79874 17.9946 3.16083 18.4774C5.8011 22.0154 11.1269 23.8485 12.5903 24.0069C13.8199 24.1351 14.6648 23.411 14.6875 22.4982C14.7025 21.6156 14.182 21.0045 13.043 20.7103L13.0354 20.7028Z" fill="#EEEEEE"/>
<path d="M37.2878 6.1209C36.5183 5.93231 35.7338 6.40756 35.5527 7.177C35.4924 7.44103 35.5075 7.70506 35.5829 7.94645C35.5829 7.94645 35.5754 7.93137 35.5678 7.92382C33.2368 5.49478 28.6805 5.62302 26.2439 8.67818C24.8936 10.3679 25.0747 12.2086 26.0025 13.1063C26.606 13.6871 27.5113 14.004 28.4089 14.0417C29.1708 14.0794 29.1558 13.8682 28.8238 13.5136C28.0016 12.6386 28.0468 11.5598 28.5296 10.6546C29.6461 8.57257 32.2109 8.14259 33.3274 9.37974C34.474 10.6621 33.6216 12.9101 31.4113 14.1548C29.5405 15.2185 27.3906 14.879 25.912 14.2755C25.3613 15.0676 25.4292 16.0181 25.6932 16.4556C26.0855 17.1195 26.6513 17.474 27.549 17.8135C28.7786 18.2736 32.49 18.1907 34.9643 15.6711C36.9483 13.657 37.4009 10.7527 36.1789 8.7159C36.3146 8.79888 36.458 8.87432 36.6164 8.91203C37.3934 9.10062 38.1779 8.61783 38.359 7.84839C38.54 7.07139 38.0648 6.2944 37.2878 6.11336V6.1209Z" fill="#EEEEEE"/>
</svg>
