<svg width="26" height="26" viewBox="0 0 26 26" fill="none" xmlns="http://www.w3.org/2000/svg">
<path fill-rule="evenodd" clip-rule="evenodd" d="M4 12C4 7.58172 7.58172 4 12 4C16.4183 4 20 7.58172 20 12C20 16.4183 16.4183 20 12 20C7.58172 20 4 16.4183 4 12ZM12 1C5.92487 1 1 5.92487 1 12C1 18.0751 5.92487 23 12 23C14.3297 23 16.4903 22.2758 18.2688 21.0401L22.5894 25.3607C23.1752 25.9465 24.1249 25.9465 24.7107 25.3607C25.2965 24.7749 25.2965 23.8252 24.7107 23.2394L20.4792 19.0079C22.0538 17.1049 23 14.6629 23 12C23 5.92487 18.0751 1 12 1Z" fill="#222222"/>
</svg>
