<svg width="60" height="60" viewBox="0 0 60 60" fill="none" xmlns="http://www.w3.org/2000/svg">
<path d="M40.9692 7.41707H12.3083C8.87592 7.41707 6.17212 10.114 6.17212 13.5464V21.8338C6.17212 22.2448 6.17558 22.6453 6.25155 23.0338L2.20276 26.0208C0.666123 27.1361 0.942373 28.1358 2.84159 28.1358H40.971C44.4034 28.1358 47.266 25.2663 47.266 21.8338V13.5464C47.266 10.114 44.4051 7.41707 40.971 7.41707H40.9692Z" fill="url(#paint0_linear_223_533)"/>
<path d="M57.8054 50.8832L53.9845 48.043C54.0778 47.6166 54.1693 47.1521 54.1693 46.698V38.4105C54.1693 34.9781 51.3084 32.2812 47.8742 32.2812H19.2133C15.7809 32.2812 13.0771 34.9781 13.0771 38.4105V46.698C13.0771 50.1304 15.7809 53 19.2133 53H57.1459C59.0451 53 59.3421 52.0003 57.8054 50.8849V50.8832Z" fill="#FBEDC8"/>
<path d="M18.31 20.1073C19.5496 20.1073 20.5545 19.1024 20.5545 17.8628C20.5545 16.6231 19.5496 15.6182 18.31 15.6182C17.0703 15.6182 16.0654 16.6231 16.0654 17.8628C16.0654 19.1024 17.0703 20.1073 18.31 20.1073Z" fill="white"/>
<path d="M26.5971 20.1073C27.8367 20.1073 28.8416 19.1024 28.8416 17.8628C28.8416 16.6231 27.8367 15.6182 26.5971 15.6182C25.3574 15.6182 24.3525 16.6231 24.3525 17.8628C24.3525 19.1024 25.3574 20.1073 26.5971 20.1073Z" fill="white"/>
<path d="M34.8852 20.1073C36.1248 20.1073 37.1297 19.1024 37.1297 17.8628C37.1297 16.6231 36.1248 15.6182 34.8852 15.6182C33.6455 15.6182 32.6406 16.6231 32.6406 17.8628C32.6406 19.1024 33.6455 20.1073 34.8852 20.1073Z" fill="white"/>
<path d="M24.8705 44.9697C26.1101 44.9697 27.115 43.9648 27.115 42.7252C27.115 41.4856 26.1101 40.4807 24.8705 40.4807C23.6309 40.4807 22.626 41.4856 22.626 42.7252C22.626 43.9648 23.6309 44.9697 24.8705 44.9697Z" fill="url(#paint1_linear_223_533)"/>
<path d="M33.1576 44.9697C34.3972 44.9697 35.4021 43.9648 35.4021 42.7252C35.4021 41.4856 34.3972 40.4807 33.1576 40.4807C31.918 40.4807 30.9131 41.4856 30.9131 42.7252C30.9131 43.9648 31.918 44.9697 33.1576 44.9697Z" fill="url(#paint2_linear_223_533)"/>
<path d="M41.4457 44.9697C42.6853 44.9697 43.6902 43.9648 43.6902 42.7252C43.6902 41.4856 42.6853 40.4807 41.4457 40.4807C40.2061 40.4807 39.2012 41.4856 39.2012 42.7252C39.2012 43.9648 40.2061 44.9697 41.4457 44.9697Z" fill="url(#paint3_linear_223_533)"/>
<defs>
<linearGradient id="paint0_linear_223_533" x1="9.40943" y1="13.132" x2="49.4346" y2="27.7197" gradientUnits="userSpaceOnUse">
<stop stop-color="#F9C032"/>
<stop offset="1" stop-color="#FD8337"/>
</linearGradient>
<linearGradient id="paint1_linear_223_533" x1="22.9972" y1="42.2953" x2="47.0516" y2="47.8203" gradientUnits="userSpaceOnUse">
<stop stop-color="#F9C032"/>
<stop offset="1" stop-color="#FD8337"/>
</linearGradient>
<linearGradient id="paint2_linear_223_533" x1="23.4129" y1="40.4876" x2="47.4673" y2="46.0126" gradientUnits="userSpaceOnUse">
<stop stop-color="#F9C032"/>
<stop offset="1" stop-color="#FD8337"/>
</linearGradient>
<linearGradient id="paint3_linear_223_533" x1="23.8279" y1="38.6799" x2="47.884" y2="44.2049" gradientUnits="userSpaceOnUse">
<stop stop-color="#F9C032"/>
<stop offset="1" stop-color="#FD8337"/>
</linearGradient>
</defs>
</svg>
