<svg width="60" height="60" viewBox="0 0 60 60" fill="none" xmlns="http://www.w3.org/2000/svg">
<path d="M14.9253 16.3991H10.5297C7.40925 16.3991 5 18.8484 5 21.9689V47.7145C5 49.4494 6.28472 51 8.01797 51H8.95988C10.6947 51 12.0483 49.4494 12.0483 47.7145V40.1071H14.9253C18.0458 40.1071 20.6986 37.6498 20.6986 34.5277V21.9689C20.6986 18.8484 18.0474 16.3991 14.9253 16.3991Z" fill="url(#paint0_linear_223_493)"/>
<path d="M48.1324 34.1249C51.8339 32.6399 53.6307 28.4354 52.1457 24.734C50.6607 21.0325 46.4563 19.2357 42.7548 20.7207C39.0534 22.2056 37.2565 26.4101 38.7415 30.1115C40.2265 33.813 44.4309 35.6098 48.1324 34.1249Z" fill="url(#paint1_linear_223_493)"/>
<path d="M47.6112 43.1203C47.6112 46.292 45.1651 48.0653 42.1567 47.0593L25.5931 41.5456C22.5848 40.5396 20.0586 37.1228 20.0586 33.951V22.3902C20.0586 19.2184 22.5928 15.8016 25.6011 14.7956L42.1199 9.28189C45.1282 8.2759 47.6112 10.0492 47.6112 13.2209V43.1203Z" fill="#F1F1F1"/>
<defs>
<linearGradient id="paint0_linear_223_493" x1="17.1247" y1="21.6998" x2="5.96594" y2="38.6542" gradientUnits="userSpaceOnUse">
<stop stop-color="#F9C032"/>
<stop offset="1" stop-color="#FD8337"/>
</linearGradient>
<linearGradient id="paint1_linear_223_493" x1="50.4552" y1="21.4242" x2="42.5899" y2="30.8385" gradientUnits="userSpaceOnUse">
<stop stop-color="#F9C032"/>
<stop offset="1" stop-color="#FD8337"/>
</linearGradient>
</defs>
</svg>
