<svg width="60" height="60" viewBox="0 0 60 60" fill="none" xmlns="http://www.w3.org/2000/svg">
<path d="M40.0081 12.0441L44.8217 5.84844C45.7042 4.72599 47.1471 4.71284 48.0296 5.83529L52.8431 12.0506C53.7256 13.1731 53.2441 14.1986 51.7733 14.1986H50.3172V42.4651H43.0862V14.1986H41.078C39.6088 14.1986 39.1273 13.1665 40.0081 12.0441Z" fill="url(#paint0_linear_223_501)"/>
<path d="M35.0318 17.3506C37.0992 17.3506 38.8116 19.0926 38.8116 21.2225V42.4651H31.252V21.2225C31.252 19.0926 32.9644 17.3506 35.0318 17.3506Z" fill="url(#paint1_linear_223_501)"/>
<path d="M24.5146 22.3663C26.582 22.3663 27.9658 24.1083 27.9658 26.2381V42.4651H21.0635V26.2381C21.0635 24.1083 22.4472 22.3663 24.5146 22.3663Z" fill="url(#paint2_linear_223_501)"/>
<path d="M35.5378 49.8522C33.5361 52.0807 29.3405 53.969 26.2164 53.969H19.4932C16.3674 53.969 13.835 51.2853 13.835 48.1595V33.175C13.835 30.0492 15.8991 28.9859 18.4365 30.8101L34.5731 42.4487C37.1105 44.2729 37.5427 47.6221 35.5394 49.8506L35.5378 49.8522Z" fill="#F1F1F1"/>
<path d="M34.8654 34.8003C34.8687 36.7066 33.1661 38.2695 31.0839 38.2728L16.2999 38.2991C14.216 38.3024 12.5085 36.6015 12.5052 34.5176L12.502 32.5472C12.4987 30.4633 14.1881 28.9547 16.2588 29.193L31.0987 30.9021C33.1678 31.1404 34.8654 32.8956 34.8687 34.8019L34.8654 34.8003Z" fill="#F1F1F1"/>
<path d="M5.15796 27.3458H11.9912C13.7332 27.3458 15.1482 28.7608 15.1482 30.5028V50.1546C15.1482 51.8966 13.7332 53.3116 11.9912 53.3116H5.15796C3.41595 53.3116 2.00098 51.8966 2.00098 50.1546V30.5028C2.00098 28.7608 3.41595 27.3458 5.15796 27.3458Z" fill="url(#paint3_linear_223_501)"/>
<path d="M57.4141 43.5136C56.6713 41.7585 54.4921 40.9861 52.5743 41.7995L43.9875 45.512C42.0697 46.3238 38.7943 47.0667 36.7122 47.0667H27.4056C25.3217 47.0667 22.3652 48.1464 20.8369 49.5597L19.4942 50.761C17.9642 52.176 18.4112 53.4496 20.4885 53.6156L37.5585 54.9731C39.6341 55.1391 42.8651 54.5195 44.7353 53.6008L55.3664 48.3765C57.2366 47.4578 58.1586 45.2688 57.4158 43.512L57.4141 43.5136Z" fill="#F1F1F1"/>
<path d="M57.4156 39.3295C56.6728 37.5744 54.4936 36.802 52.5758 37.6138L43.989 41.249C42.0711 42.0609 38.8155 42.475 36.7547 42.1677L26.7102 40.6705C24.6494 40.3632 23.0799 41.8127 23.2229 43.8916L23.3593 45.8982C23.5023 47.9771 25.3232 49.6961 27.407 49.6961H38.1385C40.2223 49.6961 43.496 49.0125 45.4155 48.199L55.2808 44.0099C57.1987 43.1965 58.1617 41.0863 57.4189 39.3312L57.4156 39.3295Z" fill="#F1F1F1"/>
<path d="M8.24674 50.3765C8.24674 51.3477 7.4579 52.1349 6.48665 52.1349C5.5154 52.1349 4.72656 51.3477 4.72656 50.3765C4.72656 49.4052 5.5154 48.6164 6.48665 48.6164C7.4579 48.6164 8.24674 49.4036 8.24674 50.3765Z" fill="white"/>
<defs>
<linearGradient id="paint0_linear_223_501" x1="46.4897" y1="2.31676" x2="46.3632" y2="23.3343" gradientUnits="userSpaceOnUse">
<stop stop-color="#F9C032"/>
<stop offset="1" stop-color="#FD8337"/>
</linearGradient>
<linearGradient id="paint1_linear_223_501" x1="29.5707" y1="16.3301" x2="36.4517" y2="35.4445" gradientUnits="userSpaceOnUse">
<stop stop-color="#F9C032"/>
<stop offset="1" stop-color="#FD8337"/>
</linearGradient>
<linearGradient id="paint2_linear_223_501" x1="17.9936" y1="15.8288" x2="26.0282" y2="38.1512" gradientUnits="userSpaceOnUse">
<stop stop-color="#F9C032"/>
<stop offset="1" stop-color="#FD8337"/>
</linearGradient>
<linearGradient id="paint3_linear_223_501" x1="5.1103" y1="27.9719" x2="12.1868" y2="53.2114" gradientUnits="userSpaceOnUse">
<stop stop-color="#F9C032"/>
<stop offset="1" stop-color="#FD8337"/>
</linearGradient>
</defs>
</svg>
