<svg width="60" height="60" viewBox="0 0 60 60" fill="none" xmlns="http://www.w3.org/2000/svg">
<path d="M11.8792 31.3125H6.83515C4.60651 31.3125 2.89258 33.1054 2.89258 35.334V51.1386C2.89258 52.6244 4.00432 53.9609 5.49008 53.9609H13.2242C14.71 53.9609 15.9315 52.6244 15.9315 51.1386V35.334C15.9315 33.1054 14.1078 31.3125 11.8792 31.3125Z" fill="#FBEDC8"/>
<path d="M53.6657 25.2271L47.6403 21.8164C45.7102 20.7201 44.0684 21.638 44.0684 23.858V51.1386C44.0684 52.6244 45.3654 53.9609 46.8511 53.9609H54.5853C56.0711 53.9609 57.1073 52.6244 57.1073 51.1386V31.2559C57.1073 29.0359 55.5958 26.3234 53.6657 25.2271Z" fill="#FBEDC8"/>
<path d="M40.3221 5.14885L19.7205 11.0696C17.5863 11.6786 15.9307 13.9948 15.9307 16.2131V50.9894C15.9307 52.4683 17.0081 53.9592 18.487 53.9592H41.5882C43.0671 53.9592 44.0656 52.47 44.0656 50.9894V8.07575C44.0656 5.8557 42.4546 4.53979 40.3204 5.14885H40.3221Z" fill="url(#paint0_linear_223_517)"/>
<path d="M31.4249 41.6064H28.577C26.2179 41.6064 24.166 44.403 24.166 47.1V53.9591H35.4893V47.1C35.4893 44.403 33.784 41.6064 31.4249 41.6064Z" fill="#FBEDC8"/>
<path d="M22.2718 22.8286C23.2952 22.8286 24.1248 21.9991 24.1248 20.9757C24.1248 19.9524 23.2952 19.1228 22.2718 19.1228C21.2485 19.1228 20.4189 19.9524 20.4189 20.9757C20.4189 21.9991 21.2485 22.8286 22.2718 22.8286Z" fill="white"/>
<path d="M30.0062 22.8286C31.0296 22.8286 31.8591 21.9991 31.8591 20.9757C31.8591 19.9524 31.0296 19.1228 30.0062 19.1228C28.9829 19.1228 28.1533 19.9524 28.1533 20.9757C28.1533 21.9991 28.9829 22.8286 30.0062 22.8286Z" fill="white"/>
<path d="M37.7396 22.8286C38.763 22.8286 39.5925 21.9991 39.5925 20.9757C39.5925 19.9524 38.763 19.1228 37.7396 19.1228C36.7163 19.1228 35.8867 19.9524 35.8867 20.9757C35.8867 21.9991 36.7163 22.8286 37.7396 22.8286Z" fill="white"/>
<path d="M24.1019 29.3434C24.2664 28.3334 23.581 27.3813 22.571 27.2168C21.5609 27.0523 20.6088 27.7377 20.4443 28.7478C20.2798 29.7578 20.9653 30.7099 21.9753 30.8744C22.9853 31.0389 23.9375 30.3535 24.1019 29.3434Z" fill="white"/>
<path d="M31.8353 29.3445C31.9998 28.3345 31.3144 27.3824 30.3044 27.2179C29.2943 27.0534 28.3422 27.7388 28.1777 28.7488C28.0132 29.7589 28.6987 30.711 29.7087 30.8755C30.7187 31.04 31.6708 30.3546 31.8353 29.3445Z" fill="white"/>
<path d="M39.5738 29.3319C39.7305 28.3207 39.0378 27.3738 38.0265 27.2171C37.0153 27.0604 36.0684 27.7531 35.9117 28.7643C35.755 29.7756 36.4477 30.7224 37.459 30.8792C38.4702 31.0359 39.4171 30.3432 39.5738 29.3319Z" fill="white"/>
<defs>
<linearGradient id="paint0_linear_223_517" x1="24.7646" y1="10.7968" x2="37.1567" y2="54.992" gradientUnits="userSpaceOnUse">
<stop stop-color="#F9C032"/>
<stop offset="1" stop-color="#FD8337"/>
</linearGradient>
</defs>
</svg>
