<svg width="20" height="14" viewBox="0 0 20 14" fill="none" xmlns="http://www.w3.org/2000/svg">
<path fill-rule="evenodd" clip-rule="evenodd" d="M13.7682 0.35981C13.4147 -0.0644668 12.7841 -0.121791 12.3598 0.231773C11.9355 0.585337 11.8782 1.2159 12.2318 1.64018L15.865 5.99999H1C0.447715 5.99999 0 6.44771 0 6.99999C0 7.55228 0.447715 7.99999 1 7.99999H15.865L12.2318 12.3598C11.8782 12.7841 11.9355 13.4147 12.3598 13.7682C12.7841 14.1218 13.4147 14.0645 13.7682 13.6402L18.764 7.6452C18.7671 7.6416 18.7701 7.63798 18.7731 7.63433L19.3017 6.99999L18.7732 6.36573C18.7701 6.36203 18.7671 6.35837 18.764 6.35472L13.7682 0.35981Z" fill="#222222"/>
</svg>
