<svg width="60" height="60" viewBox="0 0 60 60" fill="none" xmlns="http://www.w3.org/2000/svg">
<path d="M10.4185 21.1317C11.1752 21.1317 11.9104 21.2279 12.614 21.4055C12.5908 21.1217 12.5758 20.8346 12.5758 20.5442C12.5758 14.7212 17.2572 10 23.0304 10C26.7062 10 29.9355 11.915 31.8007 14.8075C33.3888 13.2326 35.5644 12.2602 37.9656 12.2602C42.8229 12.2602 46.7608 16.2313 46.7608 21.1317C46.7608 21.2877 46.7558 21.442 46.7492 21.5947C47.6403 21.296 48.5912 21.1317 49.5819 21.1317C54.5304 21.1317 58.543 25.1874 58.543 30.1791C58.543 35.1708 54.5304 39.2281 49.5819 39.2281H10.4185C5.46999 39.2281 1.45741 35.1708 1.45741 30.1791C1.45741 25.1874 5.46999 21.13 10.4185 21.13V21.1317Z" fill="#FBEDC8"/>
<path d="M24.8563 43.5428H23.4358V37.8608C23.4358 36.651 22.3422 35.5773 21.1325 35.5773H19.8182C18.6084 35.5773 17.7936 36.651 17.7936 37.8608V43.5428H16.0943C14.8895 43.5428 14.4946 44.3376 15.2181 45.3018L19.161 50.5623C19.8845 51.5264 21.0677 51.5281 21.7896 50.564L25.7325 45.3001C26.456 44.336 26.0611 43.5411 24.8563 43.5411V43.5428Z" fill="url(#paint0_linear_309_1121)"/>
<path d="M35.1439 43.5427H36.7104V49.0771C36.7104 50.2868 37.658 51.5082 38.8677 51.5082H40.182C41.3918 51.5082 42.6845 50.2868 42.6845 49.0771V43.5427H43.9059C45.1106 43.5427 45.5039 42.6732 44.7821 41.7107L40.8392 36.4137C40.1156 35.4495 38.9324 35.4296 38.2106 36.3938L34.2677 41.7223C33.5442 42.6865 33.9391 43.5444 35.1439 43.5444V43.5427Z" fill="url(#paint1_linear_309_1121)"/>
<defs>
<linearGradient id="paint0_linear_309_1121" x1="20.4753" y1="38.6673" x2="20.4753" y2="49.409" gradientUnits="userSpaceOnUse">
<stop stop-color="#F9C032"/>
<stop offset="1" stop-color="#FD8337"/>
</linearGradient>
<linearGradient id="paint1_linear_309_1121" x1="39.5249" y1="48.3917" x2="39.5249" y2="37.5687" gradientUnits="userSpaceOnUse">
<stop stop-color="#F9C032"/>
<stop offset="1" stop-color="#FD8337"/>
</linearGradient>
</defs>
</svg>
