<svg width="60" height="60" viewBox="0 0 60 60" fill="none" xmlns="http://www.w3.org/2000/svg">
<path d="M13.8418 31.4512H24.6598C27.8832 31.4512 30.5016 34.0588 30.5016 37.2725V47.7275C30.5016 50.9396 27.8848 53.5489 24.6598 53.5489H13.8418C10.6185 53.5489 8 50.9412 8 47.7275V37.2725C8 34.0605 10.6168 31.4512 13.8418 31.4512Z" fill="url(#paint0_linear_223_471)"/>
<path d="M24.6582 9.35498H13.8418C10.6155 9.35498 8 11.9613 8 15.1763V25.6297C8 28.8448 10.6155 31.4511 13.8418 31.4511H24.6582C27.8845 31.4511 30.5 28.8448 30.5 25.6297V15.1763C30.5 11.9613 27.8845 9.35498 24.6582 9.35498Z" fill="#FBEDC8"/>
<path d="M22.4429 31.4707C22.4429 33.1978 21.0374 34.5966 19.3059 34.5966C17.5744 34.5966 16.1689 33.1978 16.1689 31.4707C16.1689 29.7436 17.5744 28.3447 19.3059 28.3447C21.0374 28.3447 22.4429 29.7453 22.4429 31.4707Z" fill="#FBEDC8"/>
<path d="M47.0517 9.35503H44.818C44.8294 9.35503 44.8343 9.20393 44.8343 9.09508C44.8343 7.36801 43.4289 6 41.6974 6C39.9658 6 38.5604 7.35338 38.5604 9.07883C38.5604 9.18768 38.5669 9.35503 38.5767 9.35503H36.343C33.1311 9.35503 30.4995 12.0992 30.4995 15.3015V17.3584C30.4995 17.3584 30.3936 17.3502 30.3381 17.3502C28.6066 17.3502 27.2012 18.7491 27.2012 20.4762C27.2012 22.2032 28.605 23.6021 30.3381 23.6021C30.3936 23.6021 30.4995 23.5973 30.4995 23.594V25.6509C30.4995 28.8516 33.1294 31.4527 36.343 31.4527H47.0517C50.2653 31.4527 52.9995 28.8516 52.9995 25.6509V15.3031C52.9995 12.1008 50.2637 9.35665 47.0517 9.35665V9.35503Z" fill="url(#paint1_linear_223_471)"/>
<path d="M47.0517 31.451H44.818C44.6566 29.8263 43.3213 28.6484 41.6974 28.6484C40.0735 28.6484 38.7398 29.8263 38.5767 31.451H36.343C33.1311 31.451 30.4995 34.0896 30.4995 37.2903V39.3471C30.4995 39.3471 30.3936 39.339 30.3381 39.339C28.6066 39.339 27.2012 40.7379 27.2012 42.465C27.2012 44.192 28.605 45.5909 30.3381 45.5909C30.3936 45.5909 30.4995 45.586 30.4995 45.5828V47.6397C30.4995 50.8404 33.1294 53.5488 36.343 53.5488H47.0517C50.2653 53.5488 52.9995 50.842 52.9995 47.6397V37.2919C52.9995 34.0896 50.2637 31.4527 47.0517 31.4527V31.451Z" fill="#FBEDC8"/>
<defs>
<linearGradient id="paint0_linear_223_471" x1="10.6283" y1="33.3878" x2="26.7079" y2="50.5021" gradientUnits="userSpaceOnUse">
<stop stop-color="#F9C032"/>
<stop offset="1" stop-color="#FD8337"/>
</linearGradient>
<linearGradient id="paint1_linear_223_471" x1="33.5745" y1="11.8278" x2="49.6558" y2="28.9438" gradientUnits="userSpaceOnUse">
<stop stop-color="#F9C032"/>
<stop offset="1" stop-color="#FD8337"/>
</linearGradient>
</defs>
</svg>
