<svg width="60" height="60" viewBox="0 0 60 60" fill="none" xmlns="http://www.w3.org/2000/svg">
<path d="M42.0204 49.603H32.6769V43.407C32.6769 42.1356 31.7499 41.095 30.4785 41.095C29.207 41.095 28.28 42.1356 28.28 43.407V49.603H18.898C17.6265 49.603 16.5859 50.5301 16.5859 51.8015C16.5859 53.073 17.6265 54 18.898 54H42.0204C43.2919 54 44.3325 53.073 44.3325 51.8015C44.3325 50.5301 43.2919 49.603 42.0204 49.603Z" fill="url(#paint0_linear_223_481)"/>
<path d="M2.99902 33.8473V36.6669C2.99902 40.4812 6.29857 43.7405 10.1129 43.7405H50.8067C54.6228 43.7405 57.5926 40.4812 57.5926 36.6669V33.8473H2.99902Z" fill="#F1F1F1"/>
<path d="M57.5944 12.6211C57.5944 8.80672 54.6247 6 50.8085 6H10.1129C6.29857 6 2.99902 8.80489 2.99902 12.6211V33.8473H57.5944V12.6211Z" fill="url(#paint1_linear_223_481)"/>
<path d="M29.1741 26.8452C27.4501 26.8452 25.8287 26.1728 24.6104 24.9545C23.3903 23.7362 22.7197 22.1148 22.7197 20.3908C22.7197 18.6669 23.3921 17.0455 24.6104 15.8272C25.8287 14.6089 27.4501 13.9365 29.1741 13.9365C30.898 13.9365 32.5194 14.6089 33.7377 15.8272C36.255 18.3444 36.255 22.4391 33.7377 24.9563C32.5176 26.1747 30.898 26.847 29.1741 26.847V26.8452ZM29.1741 17.5988C28.4284 17.5988 27.7286 17.8901 27.2009 18.4159C26.6733 18.9435 26.3838 19.6434 26.3838 20.389C26.3838 21.1347 26.6733 21.8345 27.2009 22.3621C27.7286 22.8898 28.4284 23.1792 29.1741 23.1792C29.9197 23.1792 30.6196 22.8898 31.1472 22.3621C32.2354 21.2739 32.2354 19.5023 31.1472 18.4159C30.6196 17.8901 29.9197 17.5988 29.1741 17.5988Z" fill="white"/>
<path d="M36.6776 29.8736C36.2086 29.8736 35.7396 29.694 35.3824 29.3368L31.1466 25.1029C30.4303 24.3865 30.4303 23.2269 31.1466 22.5123C31.863 21.796 33.0227 21.7978 33.7372 22.5123L37.9729 26.7462C38.6892 27.4626 38.6892 28.6223 37.9729 29.3368C37.6156 29.694 37.1466 29.8736 36.6776 29.8736Z" fill="white"/>
<defs>
<linearGradient id="paint0_linear_223_481" x1="30.4601" y1="43.2147" x2="30.4601" y2="50.902" gradientUnits="userSpaceOnUse">
<stop stop-color="#F9C032"/>
<stop offset="1" stop-color="#FD8337"/>
</linearGradient>
<linearGradient id="paint1_linear_223_481" x1="16.6827" y1="12.2602" x2="54.7621" y2="38.0189" gradientUnits="userSpaceOnUse">
<stop stop-color="#F9C032"/>
<stop offset="1" stop-color="#FD8337"/>
</linearGradient>
</defs>
</svg>
