<svg width="36" height="14" viewBox="0 0 36 14" fill="none" xmlns="http://www.w3.org/2000/svg">
<path fill-rule="evenodd" clip-rule="evenodd" d="M29.7682 0.359841C29.4147 -0.0644362 28.7841 -0.12176 28.3598 0.231804C27.9355 0.585368 27.8782 1.21593 28.2318 1.64021L31.865 6.00003H1C0.447715 6.00003 0 6.44774 0 7.00003C0 7.55231 0.447715 8.00002 1 8.00002H31.865L28.2318 12.3598C27.8782 12.7841 27.9355 13.4147 28.3598 13.7682C28.7841 14.1218 29.4147 14.0645 29.7682 13.6402L34.7642 7.64509C34.7671 7.64158 34.7701 7.63805 34.773 7.6345L35.3017 7.00003L34.773 6.36556C34.7701 6.362 34.7671 6.35846 34.7641 6.35494L29.7682 0.359841Z" fill="white"/>
</svg>
