<svg width="261" height="130" viewBox="0 0 261 130" fill="none" xmlns="http://www.w3.org/2000/svg">
<path d="M124.516 53.538C128.374 57.0818 131.617 60.9404 130.441 67.5219C129.237 74.1855 123.093 77.5379 120.247 76.4843C119.125 76.0601 118.222 74.8697 118.892 73.1046C120.151 69.8891 123.517 67.6451 126.856 66.6462C128.812 66.0442 129.059 65.1137 128.073 64.3064C127.211 63.5949 125.542 62.9929 123.367 62.9518C117.565 62.8424 111.531 68.4934 113.351 74.8149C114.473 78.7009 118.66 81.3964 123.736 81.547C129.715 81.7385 136.625 78.0304 138.24 70.2859C140.019 61.6383 134.162 54.14 127.239 51.6497C122.792 50.0625 123.066 52.156 124.53 53.5243L124.516 53.538Z" fill="#EE2A7B"/>
<path d="M115.074 11.025C117.318 11.2849 123.831 22.5871 125.364 22.6144C126.896 22.6281 138.937 10.0398 141.154 10.204C143.836 10.3955 141.359 15.4719 137.788 21.8071C135.859 25.2415 134.764 26.8288 134.764 28.2655C134.764 29.9485 141.592 38.1309 140.237 39.6634C139.211 40.8264 130.865 36.3384 128.867 35.3532C127.444 34.6691 127.362 35.6816 127.362 37.091C127.362 38.1446 128.402 44.9313 126.308 44.7124C120.835 44.0966 110.012 10.4229 115.074 11.025Z" fill="#047BC1"/>
<path d="M157.436 61.6793C158.928 65.7021 158.586 70.0533 159.543 72.2425C160.488 74.3771 162.882 75.0339 164.565 73.7477C166.467 72.2699 166.467 67.1251 166.043 64.1833C165.646 61.5698 163.854 53.319 159.749 51.7728C157.176 50.8013 154.262 52.2928 153.824 54.0853C153.386 55.8777 150.13 62.9108 148.775 62.3771C148.269 62.1719 147.024 57.9302 146.449 56.384C145.833 54.7284 143.521 47.0249 141.865 46.888C140.593 46.7922 140.264 50.8287 140.538 54.3042C140.798 57.3144 141.838 67.3167 144.903 69.1365C147.954 70.97 154.481 67.4945 157.436 61.6656V61.6793Z" fill="#F58220"/>
<path d="M116.73 52.7717C119.193 53.4148 120.328 54.7284 120.287 56.644C120.233 58.628 118.413 60.2016 115.745 59.9142C112.57 59.5722 101.035 55.6041 95.3159 47.9417C92.9624 44.7946 94.0571 41.9485 96.8621 40.0603C102.527 36.2564 115.348 33.4788 116.716 36.2427C117.482 37.7889 112.775 39.294 108.876 40.9634C105.236 42.4959 101.747 44.2062 101.692 45.3009C101.637 46.6418 109.259 50.8424 116.716 52.7717H116.73Z" fill="#00AEE6"/>
<path d="M114.828 52.4708C114.992 49.5016 114.431 42.0718 113.09 41.4697C111.954 40.9634 110.449 45.2052 109.204 50.8562" fill="#00AEE6"/>
<path d="M129.346 13.7753C128.443 15.2394 126.486 15.6773 125.036 14.7605C123.585 13.8574 123.134 11.9145 124.037 10.4641C124.954 9 126.897 8.56214 128.347 9.4789C129.811 10.382 130.263 12.3113 129.346 13.7753Z" fill="#047BC1"/>
<path d="M171.599 24.9405C171.202 26.6099 169.505 27.6635 167.822 27.253C166.153 26.8562 165.113 25.1732 165.524 23.4902C165.92 21.8208 167.604 20.7809 169.287 21.1914C170.97 21.5882 172.009 23.2575 171.613 24.9405H171.599Z" fill="#39B54A"/>
<path d="M94.2353 44.7673C93.2911 46.2177 91.3482 46.6145 89.9115 45.6704C88.4747 44.7263 88.0643 42.797 89.0084 41.3466C89.9525 39.8962 91.8955 39.4994 93.3322 40.4435C94.7689 41.3876 95.1794 43.3169 94.2353 44.7673Z" fill="#00AEE6"/>
<path d="M144.137 43.6041C144.985 45.0408 146.203 45.8207 148.16 46.5459C150.814 47.5448 158.86 47.3532 164.223 41.9074C169.122 36.9405 169.71 29.4559 165.537 25.1047C160.488 19.8368 150.623 20.1241 145.341 26.733C142.413 30.3863 142.81 34.3681 144.807 36.3247C146.107 37.5836 148.078 38.2814 150.021 38.3635C151.676 38.4319 151.635 37.9941 150.924 37.2278C149.145 35.3259 149.227 32.9998 150.28 31.0294C152.689 26.5277 158.258 25.5836 160.68 28.2792C163.156 31.0568 161.323 35.9279 156.534 38.6235C152.483 40.9222 147.831 40.197 144.616 38.8834C143.425 40.5938 143.576 42.6599 144.137 43.6041Z" fill="#39B54A"/>
<path d="M47.78 106.71V102.55H31.09V104.94H43.88V108.02C43.88 109.54 43.67 110.96 43.41 112.03H27.74V114.42H37.29V118.61H30.86V121.01H44.11V128.07H45.87C47.29 128.07 48 127.72 48 126.39V118.61H41.19V114.42H51.13V112.03H46.85C47.44 110.56 47.79 108.52 47.79 106.7L47.78 106.71ZM9.91 119.83H6.00999V125.14C6.00999 126.98 7.12 128.04 9.09 128.04H22.62V125.65H9.91V119.83ZM22.4 101.96H18.5V121.24H20.26C21.67 121.24 22.4 120.89 22.4 119.56V110.36H26.29V107.97H22.4V101.95V101.96ZM15.39 111.38C15.39 109.64 14.61 108.08 13.37 106.96H16.08V104.56H10.74V101.67H6.84V104.56H1.5V106.96H4.2C2.95 108.08 2.18 109.64 2.18 111.38C2.18 114.78 5.14 117.53 8.79 117.53C12.44 117.53 15.4 114.78 15.4 111.38H15.39ZM6.06 111.38C6.06 109.26 7.28 107.55 8.78 107.55C10.28 107.55 11.49 109.27 11.49 111.38C11.49 113.49 10.27 115.21 8.78 115.21C7.29 115.21 6.06 113.49 6.06 111.38ZM216.43 109.31C216.43 112.29 219.34 114.72 222.94 114.72C226.54 114.72 229.45 112.3 229.45 109.31C229.45 108.09 228.96 106.98 228.14 106.07H232.43V103.67H224.89V101H220.99V103.67H213.45V106.07H217.74C216.92 106.97 216.44 108.09 216.44 109.31H216.43ZM222.93 106.29C224.37 106.29 225.53 107.64 225.53 109.3C225.53 110.96 224.37 112.31 222.93 112.31C221.49 112.31 220.33 110.96 220.33 109.3C220.33 107.64 221.5 106.29 222.93 106.29ZM211.11 118.14H218.85C217.08 119.23 215.92 121.01 215.92 123.02C215.92 126.33 219.06 129.02 222.93 129.02C226.8 129.02 229.95 126.33 229.95 123.02C229.95 121.01 228.79 119.23 227.02 118.14H234.77V115.74H211.11V118.14ZM222.93 119.35C224.58 119.35 225.91 120.99 225.91 123.02C225.91 125.05 224.57 126.68 222.93 126.68C221.29 126.68 219.95 125.04 219.95 123.02C219.95 121 221.28 119.35 222.93 119.35ZM245.59 112.61C249.1 112.61 251.94 110.16 251.94 107.15C251.94 104.14 249.1 101.69 245.59 101.69C242.08 101.69 239.25 104.13 239.25 107.15C239.25 110.17 242.09 112.61 245.59 112.61ZM245.59 103.75C246.95 103.75 248.06 105.27 248.06 107.16C248.06 109.05 246.96 110.56 245.59 110.56C244.22 110.56 243.13 109.04 243.13 107.16C243.13 105.28 244.23 103.75 245.59 103.75ZM243.34 119.64H247.23V115.79H253.78V113.51H237.7V115.79H243.33V119.64H243.34ZM250.04 119.45H255.83V121.85H257.59C259 121.85 259.72 121.5 259.72 120.17V101.96H255.83V117.17H250.04V119.45ZM247.24 125.66V120.93H243.35V125.15C243.35 126.99 244.46 128.05 246.43 128.05H259.96V125.66H247.24ZM176.66 120.13H167.96V117.21H164.06V125.14C164.06 126.98 165.17 128.04 167.14 128.04H180.55V117.2H176.65V120.12L176.66 120.13ZM176.66 125.66H167.96V122.53H176.66V125.66ZM176.66 107.13H172.79C172.08 104.19 169.3 101.99 165.97 101.99C162.1 101.99 158.97 104.95 158.97 108.61C158.97 112.27 162.1 115.23 165.97 115.23C169.51 115.23 172.42 112.75 172.9 109.52H176.66V115.51H178.42C179.84 115.51 180.56 115.16 180.56 113.84V101.97H176.66V107.14V107.13ZM165.98 112.73C164.35 112.73 163.03 110.89 163.03 108.61C163.03 106.33 164.35 104.48 165.98 104.48C167.61 104.48 168.93 106.33 168.93 108.61C168.93 110.89 167.61 112.73 165.98 112.73ZM97.98 118.28C96.32 118.78 93.49 119 91.7 119H90.09V116.58C92.73 115.82 94.64 113.57 94.64 110.91C94.64 109.39 94.01 108.01 92.98 106.96H95.43V104.56H90.09V101.67H86.19V104.56H80.85V106.96H83.3C82.27 108.01 81.64 109.39 81.64 110.91C81.64 113.57 83.55 115.82 86.19 116.58V119H80.7V121.4H91.7C93.94 121.4 96.52 121 97.98 120.39V128.08H99.74C101.16 128.08 101.87 127.73 101.87 126.4V101.96H97.97V118.28H97.98ZM88.15 114.62C86.71 114.62 85.55 112.96 85.55 110.91C85.55 108.86 86.72 107.21 88.15 107.21C89.58 107.21 90.75 108.87 90.75 110.91C90.75 112.95 89.59 114.62 88.15 114.62ZM62.6 107.16V102.56H58.59V107.16C58.59 109.18 58.3 114.28 52.35 117.22L54.25 119.05C56.12 118.33 59.05 116.31 60.59 113.97C62.13 116.31 65.07 118.33 66.93 119.05L68.82 117.22C62.88 114.28 62.59 109.17 62.59 107.16H62.6ZM74.16 101.96H70.27V128.08H72.03C73.44 128.08 74.16 127.73 74.16 126.4V111.08H78.05V108.68H74.16V101.96ZM150.22 128.08H151.98C153.39 128.08 154.12 127.73 154.12 126.4V101.96H150.22V128.08ZM141.97 102.84H133.61V105.24H141.94C141.63 110.56 137.43 115.47 132.65 117.76L134.55 119.6C137.9 118.17 146.2 113.45 146.2 104.4V102.85H141.96L141.97 102.84ZM124.06 107.65H119.58V110.04H124.06V116.48H125.82C127.23 116.48 127.96 116.13 127.96 114.8V101.95H124.06V107.64V107.65ZM113.89 111.5C115.38 113.72 118.22 115.42 120.12 116.13L122.02 114.3C116.31 111.56 115.9 107.89 115.9 104.96H120.54V102.57H107.24V104.96H111.89C111.89 107.89 111.48 111.57 105.77 114.3L107.67 116.13C109.57 115.41 112.41 113.72 113.9 111.5H113.89ZM110.59 120.8H124.06V128.08H125.82C127.23 128.08 127.96 127.73 127.96 126.4V118.4H110.59V120.8ZM192.63 112.48C194.15 114.77 196.99 116.65 198.98 117.34L200.88 115.5C195.09 112.78 194.65 107.89 194.64 104.95H199.4V102.56H185.87V104.95H190.62C190.62 107.89 190.18 112.78 184.38 115.5L186.28 117.34C188.26 116.66 191.11 114.77 192.63 112.48ZM206.82 119.57V101.96H202.92V121.24H204.68C206.1 121.24 206.82 120.89 206.82 119.56V119.57ZM194.33 119.35H190.44V125.14C190.44 126.98 191.55 128.04 193.52 128.04H207.05V125.65H194.33V119.35Z" fill="#58595B"/>
</svg>
